<?xml version="1.0" encoding="utf-8"?>
<!-- Generator: Adobe Illustrator 25.0.1, SVG Export Plug-In . SVG Version: 6.00 Build 0)  -->
<svg version="1.1" id="Layer_1" xmlns="http://www.w3.org/2000/svg" xmlns:xlink="http://www.w3.org/1999/xlink" x="0px" y="0px"
	 viewBox="0 0 291.3 291.3" style="enable-background:new 0 0 291.3 291.3;" xml:space="preserve">
<style type="text/css">
	.st0{fill:#00B900;}
	.st1{fill:#FFFFFF;}
</style>
<circle class="st0" cx="145.7" cy="145.7" r="145.7"/>
<g id="TYPE_A_1_">
	<g>
		<path class="st1" d="M235.7,132.9c0-40.3-40.4-73-90-73c-49.6,0-90,32.8-90,73c0,36.1,32,66.3,75.3,72.1c2.9,0.6,6.9,1.9,7.9,4.4
			c0.9,2.3,0.6,5.8,0.3,8.1c0,0-1.1,6.4-1.3,7.7c-0.4,2.3-1.8,8.9,7.8,4.9c9.6-4,51.8-30.5,70.7-52.3h0
			C229.4,163.6,235.7,149.1,235.7,132.9"/>
		<g>
			<path class="st0" d="M127.4,113.5h-6.3c-1,0-1.8,0.8-1.8,1.8v39.2c0,1,0.8,1.7,1.8,1.7h6.3c1,0,1.8-0.8,1.8-1.7v-39.2
				C129.1,114.3,128.3,113.5,127.4,113.5"/>
			<path class="st0" d="M170.8,113.5h-6.3c-1,0-1.8,0.8-1.8,1.8v23.3l-18-24.3c0-0.1-0.1-0.1-0.1-0.2c0,0,0,0,0,0
				c0,0-0.1-0.1-0.1-0.1c0,0,0,0,0,0c0,0-0.1-0.1-0.1-0.1c0,0,0,0,0,0c0,0-0.1,0-0.1-0.1c0,0,0,0-0.1,0c0,0-0.1,0-0.1-0.1
				c0,0,0,0-0.1,0c0,0-0.1,0-0.1,0c0,0,0,0-0.1,0c0,0-0.1,0-0.1,0c0,0,0,0-0.1,0c0,0-0.1,0-0.1,0c0,0,0,0-0.1,0c0,0-0.1,0-0.1,0
				c0,0-0.1,0-0.1,0c0,0,0,0-0.1,0H137c-1,0-1.8,0.8-1.8,1.8v39.2c0,1,0.8,1.7,1.8,1.7h6.3c1,0,1.8-0.8,1.8-1.7v-23.3l18,24.3
				c0.1,0.2,0.3,0.3,0.4,0.4c0,0,0,0,0,0c0,0,0.1,0,0.1,0.1c0,0,0,0,0,0c0,0,0.1,0,0.1,0c0,0,0.1,0,0.1,0c0,0,0,0,0.1,0
				c0,0,0.1,0,0.1,0c0,0,0,0,0,0c0.1,0,0.3,0.1,0.4,0.1h6.3c1,0,1.8-0.8,1.8-1.7v-39.2C172.6,114.3,171.8,113.5,170.8,113.5"/>
			<path class="st0" d="M112.2,146.4H95v-31.1c0-1-0.8-1.8-1.8-1.8h-6.3c-1,0-1.8,0.8-1.8,1.8v39.2v0c0,0.5,0.2,0.9,0.5,1.2
				c0,0,0,0,0,0c0,0,0,0,0,0c0.3,0.3,0.7,0.5,1.2,0.5h0h25.2c1,0,1.8-0.8,1.8-1.8v-6.3C113.9,147.2,113.1,146.4,112.2,146.4"/>
			<path class="st0" d="M205.7,123.3c1,0,1.8-0.8,1.8-1.8v-6.3c0-1-0.8-1.8-1.8-1.8h-25.2h0c-0.5,0-0.9,0.2-1.2,0.5c0,0,0,0,0,0
				c0,0,0,0,0,0c-0.3,0.3-0.5,0.7-0.5,1.2v0v39.2v0c0,0.5,0.2,0.9,0.5,1.2c0,0,0,0,0,0c0,0,0,0,0,0c0.3,0.3,0.7,0.5,1.2,0.5h0h25.2
				c1,0,1.8-0.8,1.8-1.8v-6.3c0-1-0.8-1.8-1.8-1.8h-17.2v-6.6h17.2c1,0,1.8-0.8,1.8-1.8v-6.3c0-1-0.8-1.8-1.8-1.8h-17.2v-6.6H205.7z
				"/>
		</g>
	</g>
</g>
</svg>
