<svg xmlns="http://www.w3.org/2000/svg" width="256.145" height="320.617" viewBox="0 0 256.145 320.617">
    <defs>
        <linearGradient id="linear-gradient" x1=".5" x2=".5" y2="1" gradientUnits="objectBoundingBox">
            <stop offset=".15" stop-color="#f5740e"/>
            <stop offset=".311" stop-color="#f3680f"/>
            <stop offset=".598" stop-color="#ee4a12"/>
            <stop offset=".973" stop-color="#e71917"/>
            <stop offset="1" stop-color="#e71618"/>
        </linearGradient>
        <style>
            .cls-2{fill:#503b32}.cls-3{fill:#ef5713}.cls-4{fill:#fff}.cls-5{fill:#e82717}.cls-6{fill:#00a1b9}.cls-14,.cls-18,.cls-20,.cls-22,.cls-24,.cls-28,.cls-29,.cls-7,.cls-8{fill:none}.cls-20,.cls-22,.cls-7{stroke:#ef5713}.cls-14,.cls-24,.cls-7{stroke-linecap:round}.cls-7{stroke-width:2.082px;stroke-dasharray:5.553 4.165}.cls-8{stroke:#c6580d;stroke-width:1.453px}.cls-9{fill:#bc460f}.cls-10{fill:#1a1818}.cls-11{fill:#facf7c}.cls-12{fill:#fff8e6}.cls-13{fill:#4c3a19}.cls-14,.cls-18,.cls-28{stroke:#1a1818}.cls-14{stroke-linejoin:round;stroke-width:3.471px}.cls-15{fill:#416e1d}.cls-16{fill:#ddc6a8}.cls-17{fill:#ae8854}.cls-18{stroke-width:2.746px}.cls-20{stroke-width:.829px}.cls-22{stroke-width:1.045px}.cls-23{fill:#fff0c6}.cls-24{stroke:#00a1b9;stroke-width:1.724px;stroke-dasharray:4.596 3.447}.cls-25{fill:#173c52}.cls-28{stroke-width:1.034px}.cls-29{stroke:#4c3a19}
        </style>
    </defs>
    <g id="觀光局LOGO" transform="translate(.827)">
        <g id="Group_28">
            <path id="Path_376" fill="url(#linear-gradient)" d="M360.518 261.076c-2.845.23-5.537.307-12.993.307h-3.51s-.2 2.755-.278 6.074h2.326c5.458 0 7.228 2.768 7.459 7.228l.308 7.151c.617-.078 5.69-.078 6.3 0-.225-4.997.003-15.763.388-20.76zm-19.453 42.674c-.231-3.768-.032-35.471-.013-36.293.083-3.319.279-6.074.279-6.074h-12.077s.2 2.752.278 6.074c.227 9.536.23 32.525 0 36.293-.154 3-1.307 4.767-4.767 4.767h-3.69v6.076s9.149-.155 14.223-.155c5.152 0 14.225.155 14.225.155v-6.076H345.6c-3.536 0-4.382-1.845-4.535-4.767zm-14.282-36.293c-.079-3.323-.279-6.074-.279-6.074h-3.354c-6.843 0-10.459-.076-13.15-.307.384 5 .617 15.763.384 20.76.693-.078 5.845-.078 6.458 0l.309-7.151c.23-4.46 2-7.228 7.458-7.228zm238.534 42.136h-1c-3.306 0-4.153-1.23-4.306-4.921-.078-3-.078-8.158 0-12.621.153-8.616-3.155-14.311-12-14.311-4.741 0-8.881 2.185-9.737 7.211 1.389-1.287 2.779-1.516 5.2-1.516 4.463 0 5.848 3.54 6.08 9.31q.231 6.575 0 12c-.156 3.539-1.233 4.845-4 4.845h-1.233v5.156c.463 0 6.695-.23 10.466-.23s9.617.23 10.539.23c-.082-.535-.082-3.997-.008-5.153zm-29.158-4.921v-26.085c-3 .23-12.465.23-15.929.23v4.923h1.153c3.694 0 4.157 1.77 4.31 4.695s.154 12.31 0 16.313c-.154 3.615-.924 4.767-4.078 4.845h-1.462v5.156c.538 0 6.925-.23 10.772-.23 3.769 0 9.693.23 10.616.23v-5.156h-1.307c-2.921 0-4.074-1.23-4.074-4.921zm-120.661.542c-.156-3.615-.078-25.221 0-26.606-3.383.155-11.373.231-15.294.231 0 0 4.684 3.571 4.836 9.073.083 3 .154 13.841 0 17.379-.153 3.613-.922 4.229-4.074 4.306H399.5v5.153c.539 0 7-.231 10.844-.231s9.762.231 10.762.231v-5.15h-1.385c-2.994 0-4.07-.7-4.221-4.387zm-5.767-32.525a6.268 6.268 0 1 0-6.151-6.3 5.934 5.934 0 0 0 6.152 6.299zm-50.008 34.175c0 5.461 4.847 8.988 10.306 8.988 3.027 0 7.083-1.837 8.286-4.473-1.286-.342-6.747-.29-6.747-6.628 0-4.774 4.418-6.64 7.7-6.528-10.333-5.302-19.544-1.099-19.544 8.64zm33.206 3.192c-1.15-.123-1.694-.769-1.694-4.384v-13.16c0-9.078-3.232-14.773-14.85-14.773-7.694 0-12.543 2.546-13.164 7.662a4.475 4.475 0 0 0 .385 2.434c1.42-1.176 4.258-2.806 9.079-2.806 6.693 0 8.349 4.041 8.163 9.492-.191 5.644-.145 9.294-.125 10.535a22.751 22.751 0 0 0 .4 4.314c.75 4.043 3.263 6.3 8.5 6.3 4.976 0 7.453-3.524 5.81-7.649a2.481 2.481 0 0 1-2.503 2.034zm87.581-3.192c0 5.461 4.847 8.988 10.306 8.988 3.028 0 7.085-1.837 8.286-4.473-1.283-.342-6.746-.29-6.746-6.628 0-4.774 4.419-6.64 7.694-6.528-10.328-5.302-19.539-1.099-19.539 8.64zm33.209 3.192c-1.152-.123-1.695-.769-1.695-4.384v-13.16c0-9.078-3.232-14.773-14.852-14.773-7.694 0-12.541 2.546-13.163 7.662a4.475 4.475 0 0 0 .385 2.434c1.419-1.176 4.256-2.806 9.079-2.806 6.692 0 8.347 4.041 8.163 9.492-.191 5.644-.146 9.294-.126 10.535a22.755 22.755 0 0 0 .4 4.314c.75 4.043 3.264 6.3 8.493 6.3 4.978 0 7.455-3.524 5.811-7.649a2.48 2.48 0 0 1-2.495 2.034zm-73.361-26.314h.846c-.078-.462-.078-4.462 0-5 0 0-6.772.231-10.542.231-3.694 0-10.464-.231-10.464-.231v5h.847c3.539 0 4.384 1.384 5.694 5.156 2.384 6.846 7.169 21.157 8.709 26.312.922-.076 6.425-.076 7.273 0 .395-1.406.8-2.742 1.426-4.747-1.437-5.028-5.483-18.566-6.408-22.336-.844-3.227.694-4.386 2.619-4.386zm21.774 0h.847v-5s-5.85.231-9.465.231-9.233-.231-9.233-.231v5h1.077c1.6 0 2.461.556 2.864 1.423 2.23 6.309 7.55 24.583 9.087 30.046 1.077-.076 7.041-.076 8.118 0 .3-1.021.613-1.992 1.158-3.681-1.694-4.921-6.222-19.863-7.068-23.4-.694-2.695.077-4.389 2.615-4.389zm19.213-4.955s-4.279.18-7.333.18-7.957-.227-7.957-.227c.072 1.933.072 3.065 0 5h1.078c1.6 0 2.458.556 2.86 1.423.816 1.165 1.312 5.418.106 9.846 4.968.629 12.655-3.5 11.247-16.223z" transform="translate(-310 -260.154)"/>
            <g id="Group_27" transform="translate(51.457 75.101)">
                <path id="Path_377" d="M358.311 324.806V335h-1.645v-10.194h-3.523v-1.5h8.69v1.5z" class="cls-2" transform="translate(-353.143 -323.085)"/>
                <path id="Path_378" d="M369.163 335v-5.372h-5.418V335H362.1v-11.694h1.642v4.821h5.418v-4.821h1.643V335z" class="cls-2" transform="translate(-351.417 -323.085)"/>
                <path id="Path_379" d="M371.761 335v-11.694h7.268v1.486H373.4v3.286h4v1.484h-4v3.951h5.958V335z" class="cls-2" transform="translate(-349.555 -323.085)"/>
                <path id="Path_380" d="M391.162 335v-5.372h-5.42V335H384.1v-11.694h1.644v4.821h5.42v-4.821h1.636V335z" class="cls-2" transform="translate(-347.177 -323.085)"/>
                <path id="Path_381" d="M393.76 335v-11.694h7.266v1.486H395.4v3.286h4v1.484h-4v3.951h5.955V335z" class="cls-2" transform="translate(-345.316 -323.085)"/>
                <path id="Path_382" d="M409.146 335l-1.042-3.19H403.7l-1.034 3.19h-1.658l3.919-11.708h1.973L410.8 335zm-3.224-10.016h-.033l-1.737 5.4h3.509z" class="cls-2" transform="translate(-343.919 -323.088)"/>
                <path id="Path_383" d="M417.55 335l-2.372-4.977h-2.654V335h-1.645v-11.694h4.252c2.812 0 4.139 1.28 4.139 3.349a3.069 3.069 0 0 1-2.418 3.114l2.513 5.231zm-2.482-10.223h-2.544v3.856H415c1.658 0 2.606-.5 2.606-1.976.005-1.393-.895-1.882-2.538-1.882z" class="cls-2" transform="translate(-342.017 -323.085)"/>
                <path id="Path_384" d="M424.187 324.806V335h-1.645v-10.194h-3.524v-1.5h8.691v1.5z" class="cls-2" transform="translate(-340.448 -323.085)"/>
                <path id="Path_385" d="M436.694 335.256c-3.032 0-5-2.354-5-6.068s1.963-6.066 5-6.066 4.977 2.353 4.977 6.066-1.942 6.068-4.977 6.068zm0-10.682c-2.053 0-3.321 1.722-3.321 4.613s1.268 4.615 3.321 4.615 3.3-1.722 3.3-4.615-1.259-4.613-3.3-4.613z" class="cls-2" transform="translate(-338.005 -323.121)"/>
                <path id="Path_386" d="M443.628 324.792v3.539h3.7v1.485h-3.7V335h-1.643v-11.694h6.968v1.486z" class="cls-2" transform="translate(-336.023 -323.085)"/>
                <path id="Path_387" d="M460.85 335l-1.044-3.19H455.4l-1.029 3.19h-1.658l3.916-11.708h1.971L462.51 335zm-3.225-10.016h-.031l-1.737 5.4h3.508z" class="cls-2" transform="translate(-333.955 -323.088)"/>
                <path id="Path_388" d="M466.245 335.256c-2.431 0-3.87-1.218-4.376-2.956l1.5-.49a2.769 2.769 0 0 0 2.905 2.054c1.614 0 2.53-.71 2.53-1.847 0-1.075-.662-1.58-2.686-2.211-2.5-.792-3.873-1.455-3.873-3.524 0-1.864 1.614-3.159 3.841-3.159a3.94 3.94 0 0 1 4.047 2.512l-1.44.584a2.609 2.609 0 0 0-2.575-1.707c-1.438 0-2.242.744-2.242 1.613 0 1.073.631 1.469 2.715 2.117 2.719.822 3.841 1.707 3.841 3.633.001 2.038-1.675 3.381-4.187 3.381z" class="cls-2" transform="translate(-332.191 -323.121)"/>
                <path id="Path_389" d="M471.185 335v-11.694h1.659V335z" class="cls-2" transform="translate(-330.395 -323.085)"/>
                <path id="Path_390" d="M482.556 335l-1.042-3.19H477.1l-1.022 3.19h-1.659l3.918-11.708h1.974l3.9 11.708zm-3.224-10.016h-.032l-1.737 5.4h3.507z" class="cls-2" transform="translate(-329.772 -323.088)"/>
            </g>
        </g>
        <g id="Group_26" transform="translate(0 111.836)">
            <g id="Group_4" transform="translate(184.155 137.197)">
                <path id="Path_52" d="M571.826 388.573a4.159 4.159 0 0 0 1.147-.163 4.013 4.013 0 0 0 .392-.134 4.164 4.164 0 0 0 2.628-3.87v-.006a4.168 4.168 0 0 0-5.384-3.974v.006a4.534 4.534 0 0 1-1.021 2.872c-.079-.107-.163-.209-.251-.307a4.149 4.149 0 0 0 .881-2.43c0-.045.007-.09.007-.135a4.165 4.165 0 0 0-8.3-.5 4.555 4.555 0 0 1 2.64 2.038c-.118.053-.234.109-.346.173a4.176 4.176 0 0 0-2.321-1.82c-.125-.038-.252-.071-.381-.1a4.166 4.166 0 0 0-2.4 7.947 4.54 4.54 0 0 1 3.038-1.572c.026.13.059.256.1.381a4.165 4.165 0 1 0 3.711 6.567 4.521 4.521 0 0 1-.518-3.677c.126.024.253.045.383.057a4.157 4.157 0 0 0 .367 3.259c.071.125.149.245.231.361a4.163 4.163 0 0 0 6.791-4.818 4.53 4.53 0 0 1-3.688-.393q.118-.152.222-.314a4.14 4.14 0 0 0 2.072.552z" class="cls-3" transform="translate(-556.492 -376.261)"/>
                <path id="Path_53" d="M575.344 388.19a.639.639 0 0 0-.534.289 7.561 7.561 0 0 0-2.707.023 1.5 1.5 0 0 0-.409-.721 7.432 7.432 0 0 1 1.976-1.538.826.826 0 1 0-.155-.54.818.818 0 0 0 .058.362 7.656 7.656 0 0 0-2.034 1.587c-.036-.027-.073-.051-.111-.075a10.193 10.193 0 0 0 .742-2.857.566.566 0 0 0 .145-.037.587.587 0 1 0-.351.029 9.985 9.985 0 0 1-.717 2.766 1.484 1.484 0 0 0-.279-.091 8.669 8.669 0 0 0-.768-4.269.828.828 0 1 0-.5.129.808.808 0 0 0 .321-.041 8.434 8.434 0 0 1 .747 4.155c-.043 0-.082-.012-.125-.012a1.5 1.5 0 0 0-.882.289 10.173 10.173 0 0 0-2.49-1.908.559.559 0 0 0 .021-.148.588.588 0 1 0-.107.336 9.954 9.954 0 0 1 2.417 1.851 1.5 1.5 0 0 0-.456.951 18.707 18.707 0 0 1-3.822-.931.633.633 0 0 0 .01-.094.632.632 0 1 0-.075.29 19.073 19.073 0 0 0 3.879.942 1.49 1.49 0 0 0 .169.628 8.546 8.546 0 0 0-3.238 2.709.766.766 0 0 0-.241-.042.775.775 0 1 0 .43.13 8.5 8.5 0 0 1 3.156-2.615 1.518 1.518 0 0 0 .538.462 7.911 7.911 0 0 0-.419 2.214.62.62 0 1 0 .208-.015 7.756 7.756 0 0 1 .4-2.116 1.437 1.437 0 0 0 1.172-.073 8.228 8.228 0 0 1 .143 3.336.635.635 0 1 0 .193.087 8.242 8.242 0 0 0-.148-3.53 1.5 1.5 0 0 0 .414-.433 9.024 9.024 0 0 1 2.231 2.964.829.829 0 1 0 .308-.061.792.792 0 0 0-.1.011 9.052 9.052 0 0 0-2.338-3.1 1.5 1.5 0 0 0 .137-.622c0-.051-.01-.1-.015-.151a7.486 7.486 0 0 1 2.59-.037.615.615 0 0 0-.022.156.64.64 0 1 0 .64-.64z" class="cls-4" transform="translate(-560.889 -379.346)"/>
            </g>
            <g id="Group_5" transform="translate(118.831 100.265)">
                <path id="Path_54" d="M416.246 300.535a4.066 4.066 0 0 0 1.122-.16 3.774 3.774 0 0 0 .383-.13 4.074 4.074 0 0 0 2.571-3.786v-.012a4.078 4.078 0 0 0-5.268-3.888v.006a4.435 4.435 0 0 1-1 2.81c-.077-.1-.159-.2-.246-.3a4.056 4.056 0 0 0 .862-2.377c0-.045.007-.088.007-.133a4.076 4.076 0 0 0-8.122-.49 4.456 4.456 0 0 1 2.583 1.994c-.115.051-.228.107-.338.168a4.083 4.083 0 0 0-2.271-1.781c-.122-.037-.247-.069-.373-.1a4.076 4.076 0 0 0-2.344 7.776 4.437 4.437 0 0 1 2.972-1.538c.026.126.057.25.094.372a4.061 4.061 0 0 0-2.678 1.3q-.139.152-.263.315a4.073 4.073 0 1 0 6.572 4.813 4.421 4.421 0 0 1-.507-3.6 3.672 3.672 0 0 0 .374.056 4.066 4.066 0 0 0 .359 3.189c.07.122.146.239.227.353a4.074 4.074 0 0 0 6.645-4.714A4.436 4.436 0 0 1 414 300.3q.115-.149.217-.308a4.053 4.053 0 0 0 2.029.543z" class="cls-3" transform="translate(-401.243 -288.488)"/>
                <path id="Path_55" d="M419.688 300.16a.624.624 0 0 0-.522.283 7.4 7.4 0 0 0-2.648.022 1.472 1.472 0 0 0-.4-.706 7.266 7.266 0 0 1 1.933-1.505.813.813 0 1 0-.1-.174 7.484 7.484 0 0 0-1.99 1.553c-.035-.026-.071-.05-.109-.074a9.978 9.978 0 0 0 .726-2.8.545.545 0 0 0 .142-.036.574.574 0 1 0-.344.029 9.777 9.777 0 0 1-.7 2.706 1.483 1.483 0 0 0-.273-.089 8.491 8.491 0 0 0-.751-4.177.81.81 0 1 0-.492.126.8.8 0 0 0 .315-.04 8.251 8.251 0 0 1 .73 4.065c-.041 0-.08-.012-.122-.012a1.467 1.467 0 0 0-.863.282 9.981 9.981 0 0 0-2.437-1.867.546.546 0 0 0 .021-.145.576.576 0 1 0-.1.329 9.762 9.762 0 0 1 2.366 1.811 1.467 1.467 0 0 0-.446.93 18.292 18.292 0 0 1-3.74-.911.6.6 0 0 0 .009-.092.618.618 0 1 0-.073.283 18.665 18.665 0 0 0 3.8.922 1.462 1.462 0 0 0 .166.614 8.361 8.361 0 0 0-3.168 2.65.739.739 0 1 0 .185.086 8.319 8.319 0 0 1 3.088-2.558 1.476 1.476 0 0 0 .526.452 7.73 7.73 0 0 0-.417 2.173.607.607 0 1 0 .2-.014 7.575 7.575 0 0 1 .395-2.07 1.408 1.408 0 0 0 1.146-.072 8.037 8.037 0 0 1 .14 3.264.619.619 0 1 0 .19.085 8.065 8.065 0 0 0-.145-3.453 1.474 1.474 0 0 0 .4-.424 8.827 8.827 0 0 1 2.183 2.9.811.811 0 1 0 .3-.06.84.84 0 0 0-.1.01 8.851 8.851 0 0 0-2.288-3.032 1.472 1.472 0 0 0 .135-.609 1.441 1.441 0 0 0-.015-.147 7.313 7.313 0 0 1 2.534-.036.6.6 0 0 0-.021.152.626.626 0 1 0 .625-.626z" class="cls-4" transform="translate(-405.545 -291.506)"/>
            </g>
            <g id="Group_6" transform="translate(114.181 46.45)">
                <path id="Path_56" d="M402.458 172.957a3.706 3.706 0 0 0 1.01.228 3.4 3.4 0 0 0 .369.013 3.723 3.723 0 0 0 3.427-2.4v-.01a3.724 3.724 0 0 0-3.233-5.032v.005a4.056 4.056 0 0 1-1.768 2.074c-.032-.114-.069-.227-.112-.337a3.706 3.706 0 0 0 1.509-1.749c.016-.037.034-.072.049-.111a3.724 3.724 0 0 0-6.774-3.061 4.075 4.075 0 0 1 1.556 2.543c-.115.007-.229.017-.344.034a3.728 3.728 0 0 0-1.36-2.259c-.091-.072-.188-.139-.287-.2a3.771 3.771 0 0 0-.686-.346 3.724 3.724 0 0 0-3.845 6.223 4.057 4.057 0 0 1 3.038-.346c-.019.117-.032.232-.041.348a3.71 3.71 0 0 0-2.709.237q-.167.084-.327.184a3.721 3.721 0 1 0 4.045 6.247 4.042 4.042 0 0 1 .738-3.237c.1.061.2.118.3.17a3.746 3.746 0 0 0-.531.949 3.7 3.7 0 0 0-.2 1.89c.02.127.047.252.079.376a3.722 3.722 0 0 0 7.207-1.864 4.054 4.054 0 0 1-2.957-1.5q.147-.09.286-.192a3.7 3.7 0 0 0 1.561 1.123z" class="cls-5" transform="translate(-390.191 -160.59)"/>
                <path id="Path_57" d="M406.218 172.32a.571.571 0 0 0-.538.072 6.757 6.757 0 0 0-2.268-.842 1.345 1.345 0 0 0-.112-.733 6.655 6.655 0 0 1 2.14-.656.739.739 0 1 0-.025-.179 6.837 6.837 0 0 0-2.2.678l-.069-.1a9.122 9.122 0 0 0 1.529-2.15.508.508 0 0 0 .133.015.524.524 0 1 0-.3-.087 8.931 8.931 0 0 1-1.479 2.082 1.366 1.366 0 0 0-.2-.165 7.755 7.755 0 0 0 .717-3.81.74.74 0 1 0-.462-.053.731.731 0 0 0 .282.069 7.536 7.536 0 0 1-.7 3.708c-.034-.016-.064-.036-.1-.05a1.342 1.342 0 0 0-.829-.04 9.1 9.1 0 0 0-1.473-2.386.529.529 0 0 0 .065-.117.526.526 0 1 0-.2.247 8.918 8.918 0 0 1 1.43 2.316 1.337 1.337 0 0 0-.683.649 16.719 16.719 0 0 1-2.9-1.994.673.673 0 0 0 .038-.076.565.565 0 1 0-.155.218 17.044 17.044 0 0 0 2.941 2.021 1.333 1.333 0 0 0-.059.579 7.634 7.634 0 0 0-3.567 1.232.676.676 0 0 0-.188-.112.693.693 0 1 0 .318.246 7.6 7.6 0 0 1 3.468-1.18 1.347 1.347 0 0 0 .3.557 7.048 7.048 0 0 0-1.056 1.721.554.554 0 1 0 .178.054 6.922 6.922 0 0 1 1.011-1.639 1.286 1.286 0 0 0 1 .312 7.348 7.348 0 0 1-.943 2.832.565.565 0 1 0 .134.134 7.368 7.368 0 0 0 1-3 1.342 1.342 0 0 0 .483-.23 8.064 8.064 0 0 1 .92 3.186.741.741 0 1 0 .277.048c-.029-.011-.059-.016-.088-.024a8.089 8.089 0 0 0-.967-3.332 1.342 1.342 0 0 0 .312-.476 1.281 1.281 0 0 0 .035-.131 6.686 6.686 0 0 1 2.175.794.552.552 0 0 0-.067.123.572.572 0 1 0 .738-.331z" class="cls-4" transform="translate(-393.581 -163.131)"/>
            </g>
            <g id="Group_7" transform="translate(168.538 93.529)">
                <path id="Path_58" d="M532.847 289.993a4.654 4.654 0 0 0 .953.891 4.514 4.514 0 0 0 .395.25 4.692 4.692 0 0 0 5.252-.427l.01-.009a4.695 4.695 0 0 0-.317-7.531h-.005a5.109 5.109 0 0 1-3.242 1.133c.038-.145.068-.291.092-.438a4.669 4.669 0 0 0 2.754-.943c.041-.031.083-.058.123-.09a4.693 4.693 0 0 0-5.424-7.639 5.131 5.131 0 0 1 .076 3.756c-.129-.066-.261-.128-.4-.182a4.7 4.7 0 0 0-.043-3.323q-.082-.2-.183-.4a4.693 4.693 0 0 0-8.667 3.512 5.111 5.111 0 0 1 3.526 1.556c-.1.114-.183.232-.266.353a4.67 4.67 0 0 0-3.1-1.464 4.534 4.534 0 0 0-.473-.008 4.69 4.69 0 1 0 .429 9.369 5.094 5.094 0 0 1 2.861-3.053c.068.128.139.254.22.376a4.68 4.68 0 0 0-2.6 2.625 4.779 4.779 0 0 0-.153.458 4.691 4.691 0 0 0 9.026 2.556 5.1 5.1 0 0 1-2.261-3.514c.144 0 .288-.011.432-.027a4.66 4.66 0 0 0 .985 2.213z" class="cls-3" transform="translate(-519.376 -272.477)"/>
                <path id="Path_59" d="M540.883 292.147a.718.718 0 0 0-.63-.264 8.525 8.525 0 0 0-1.932-2.359 1.7 1.7 0 0 0 .344-.869 8.355 8.355 0 0 1 2.745.647.938.938 0 1 0 .087-.211 8.607 8.607 0 0 0-2.829-.664c0-.051-.007-.1-.013-.151a11.48 11.48 0 0 0 3.031-1.367.638.638 0 0 0 .135.1.661.661 0 1 0-.274-.288 11.265 11.265 0 0 1-2.934 1.325 1.7 1.7 0 0 0-.117-.309 9.773 9.773 0 0 0 3.2-3.69.933.933 0 1 0-.468-.35.915.915 0 0 0 .263.253 9.5 9.5 0 0 1-3.119 3.59c-.027-.039-.047-.08-.077-.118a1.687 1.687 0 0 0-.876-.57 11.493 11.493 0 0 0-.085-3.534.609.609 0 0 0 .144-.086.662.662 0 1 0-.369.143 11.24 11.24 0 0 1 .083 3.43 1.687 1.687 0 0 0-1.156.271 21.062 21.062 0 0 1-1.884-4.012.677.677 0 0 0 .089-.058.711.711 0 1 0-.306.139 21.506 21.506 0 0 0 1.913 4.07 1.689 1.689 0 0 0-.431.592 9.615 9.615 0 0 0-4.664-.928.852.852 0 1 0 .056.228 9.581 9.581 0 0 1 4.524.922 1.708 1.708 0 0 0-.026.8 8.9 8.9 0 0 0-2.239 1.2.7.7 0 1 0 .16.172 8.719 8.719 0 0 1 2.142-1.141 1.618 1.618 0 0 0 .892.977 9.267 9.267 0 0 1-2.827 2.482.706.706 0 0 0-.089-.154.722.722 0 1 0 .15.385 9.3 9.3 0 0 0 2.993-2.623 1.7 1.7 0 0 0 .672.056 10.174 10.174 0 0 1-1.025 4.052.934.934 0 1 0 .271.228.867.867 0 0 0-.08-.081 10.193 10.193 0 0 0 1.068-4.242 1.687 1.687 0 0 0 .643-.319c.045-.037.08-.08.122-.12a8.45 8.45 0 0 1 1.861 2.247.688.688 0 0 0-.152.09.721.721 0 1 0 1.013.109z" class="cls-4" transform="translate(-524.99 -277.854)"/>
            </g>
            <g id="Group_8" transform="translate(149.498 96.215)">
                <path id="Path_60" d="M483.6 281.805a3.489 3.489 0 0 0-.286-.928c-.05-.106-.1-.207-.162-.307a3.492 3.492 0 0 0-3.552-1.665h-.009a3.495 3.495 0 0 0-2.579 4.983 3.807 3.807 0 0 1 2.514.467q-.117.12-.222.249a3.478 3.478 0 0 0-2.127-.409c-.038 0-.075.006-.114.012a3.493 3.493 0 0 0 .681 6.94 3.82 3.82 0 0 1 1.339-2.455q.088.136.189.263a3.5 3.5 0 0 0-1.2 2.162c-.015.109-.025.219-.031.329a3.5 3.5 0 0 0 4.04 3.621 3.493 3.493 0 0 0 2.857-2.687 3.805 3.805 0 0 1-1.7-2.307c.1-.039.2-.082.3-.13a3.477 3.477 0 0 0 1.46 2.091 3.379 3.379 0 0 0 .3.181 3.491 3.491 0 1 0 3.195-6.215 3.8 3.8 0 0 1-2.977.915 3.236 3.236 0 0 0 0-.325 3.482 3.482 0 0 0 2.65-.734c.094-.075.183-.156.269-.239a3.491 3.491 0 0 0-4.887-4.987 3.8 3.8 0 0 1 .161 3.106c-.093-.051-.19-.1-.289-.142a3.472 3.472 0 0 0 .18-1.789z" class="cls-6" transform="translate(-474.125 -278.861)"/>
                <path id="Path_61" d="M483.578 287.785a.533.533 0 0 0 .31.4 6.34 6.34 0 0 0 .377 2.238 1.271 1.271 0 0 0-.544.434 6.231 6.231 0 0 1-1.534-1.432.7.7 0 1 0-.134.1 6.416 6.416 0 0 0 1.583 1.474l-.048.1a8.52 8.52 0 0 0-2.463-.237.465.465 0 0 0-.05-.115.492.492 0 1 0 .071.287 8.386 8.386 0 0 1 2.385.228 1.27 1.27 0 0 0-.038.243 7.288 7.288 0 0 0-3.434 1.2.694.694 0 1 0 .174.4.685.685 0 0 0-.076-.26 7.066 7.066 0 0 1 3.342-1.168c0 .036 0 .07.007.105a1.258 1.258 0 0 0 .356.693 8.53 8.53 0 0 0-1.251 2.313.482.482 0 0 0-.125 0 .494.494 0 1 0 .292.044 8.382 8.382 0 0 1 1.214-2.247 1.253 1.253 0 0 0 .847.252 15.679 15.679 0 0 1-.266 3.288.644.644 0 0 0-.08.005.53.53 0 1 0 .25.024 15.99 15.99 0 0 0 .268-3.338 1.254 1.254 0 0 0 .5-.223 7.166 7.166 0 0 0 2.67 2.323.657.657 0 0 0 0 .205.651.651 0 1 0 .051-.373 7.134 7.134 0 0 1-2.582-2.268 1.26 1.26 0 0 0 .312-.507 6.6 6.6 0 0 0 1.888.055.522.522 0 1 0-.039-.17 6.475 6.475 0 0 1-1.805-.054 1.263 1.263 0 0 0 .009-.425 1.242 1.242 0 0 0-.225-.535 6.883 6.883 0 0 1 2.743-.559.534.534 0 1 0 .047-.172 6.93 6.93 0 0 0-2.9.589 1.258 1.258 0 0 0-.413-.285 7.566 7.566 0 0 1 2.16-2.239.7.7 0 1 0-.091-.248.526.526 0 0 0 .021.082 7.6 7.6 0 0 0-2.258 2.346 1.241 1.241 0 0 0-.533-.032 1.02 1.02 0 0 0-.123.032 6.28 6.28 0 0 1-.373-2.14.51.51 0 0 0 .132 0 .536.536 0 1 0-.613-.445z" class="cls-4" transform="translate(-476.856 -283.655)"/>
            </g>
            <g id="Group_9" transform="translate(18.412 86.525)">
                <path id="Path_62" d="M212.8 255.833c.212 5.267.323 10.538.425 15.808" class="cls-7" transform="translate(-191.672 -255.833)"/>
                <path id="Path_63" d="M213.237 323.528c-.02 5.2-.087 9.71-.437 14.9" class="cls-7" transform="translate(-191.672 -295.044)"/>
                <path id="Path_64" d="M190.874 261.569c3.592 3.807 5.924 8.8 7.807 13.627" class="cls-7" transform="translate(-178.971 -259.155)"/>
                <path id="Path_65" d="M182.664 266.694c4.187 3.023 7.383 7.412 10.117 11.733" class="cls-7" transform="translate(-174.216 -262.124)"/>
                <path id="Path_66" d="M175.568 273.274c4.65 2.165 8.59 5.842 12.07 9.543" class="cls-7" transform="translate(-170.106 -265.935)"/>
                <path id="Path_67" d="M169.836 281.064c4.974 1.253 9.536 4.123 13.649 7.1" class="cls-7" transform="translate(-166.785 -270.448)"/>
                <path id="Path_68" d="M165.674 289.806c5.082.293 9.93 2.169 14.5 4.3" class="cls-7" transform="translate(-164.375 -275.511)"/>
                <path id="Path_69" d="M163.223 298.855c5.045-.667 10.159.264 15.046 1.492" class="cls-7" transform="translate(-162.955 -280.624)"/>
                <path id="Path_70" d="M162.586 306.751c4.856-1.614 10.082-1.655 15.139-1.361" class="cls-7" transform="translate(-162.586 -284.457)"/>
                <path id="Path_71" d="M163.77 312.671c4.45-2.488 9.554-3.513 14.557-4.176" class="cls-7" transform="translate(-163.272 -286.337)"/>
                <path id="Path_72" d="M166.739 318.22c3.9-3.277 8.713-5.241 13.5-6.832" class="cls-7" transform="translate(-164.992 -288.012)"/>
                <path id="Path_73" d="M171.39 323.262c3.216-3.96 7.712-6.874 12.122-9.337" class="cls-7" transform="translate(-167.686 -289.482)"/>
                <path id="Path_74" d="M177.55 327.754c2.424-4.511 6.313-8.232 10.2-11.491" class="cls-7" transform="translate(-171.254 -290.836)"/>
                <path id="Path_75" d="M185.009 331.54c1.534-4.895 4.659-9.285 7.869-13.221" class="cls-7" transform="translate(-175.574 -292.027)"/>
                <path id="Path_76" d="M193.49 334.618a69.29 69.29 0 0 1 5.54-14.369" class="cls-7" transform="translate(-180.487 -293.145)"/>
                <path id="Path_77" d="M203.5 336.5c.915-5 1.322-10.236 2.567-15.212" class="cls-7" transform="translate(-186.285 -293.748)"/>
                <path id="Path_78" d="M201.213 257.651a67.76 67.76 0 0 1 4.265 15.186" class="cls-7" transform="translate(-184.96 -256.886)"/>
                <path id="Path_79" d="M209.024 298.393h-.156a3.762 3.762 0 0 0-.233 7.516l-.212-1.122h1.17z" class="cls-5" transform="translate(-187.214 -280.483)"/>
            </g>
            <g id="Group_10" transform="translate(121.973 60.321)">
                <path id="Line_1" d="M4.557 0L0 9.997" class="cls-8" transform="translate(19.112 34.47)"/>
                <path id="Line_2" d="M4.34 0L0 6.663" class="cls-8" transform="translate(14.62 33.855)"/>
                <path id="Path_80" d="M447.557 227.577c-26.351 4.274-24.83-20.061-24.686-25.1.071-2.472 2.652-6.2 3.176-6.437 3.285-2.555 6.156-2.962 8.279-1.734 2.731 1.579 4.395 5.294 3.585 9.669.108.626 1.851 2.507 4.259 5.171 3.595 3.976 8.826 9.605 13.522 14.67a17.053 17.053 0 0 1-8.136 3.757" class="cls-9" transform="translate(-416.877 -193.607)"/>
                <path id="Path_81" d="M408.71 203.4c2.136 1.606 5.938 4.365 5.938 4.365l3.244-8.473s-3.966 1.872-9.182 4.108" class="cls-10" transform="translate(-408.71 -196.878)"/>
                <path id="Path_82" d="M459.344 257.583c-9.344-7.339-31.239-5.946-31.239-5.946 2.95 9.777 17.245 14.516 31.239 5.946" class="cls-11" transform="translate(-419.944 -227.137)"/>
                <path id="Path_83" d="M446.92 232.753c6.84 1.1 9.2-2.322 9.2-2.322 12.68 13.305 20.578 17.945 25.958 16.426a20.885 20.885 0 0 0-5.471 7.884l-7.294-9.755c-11.342 2.964-22.4-.068-22.4-12.232" class="cls-10" transform="translate(-430.842 -214.915)"/>
                <path id="Path_84" d="M426.538 195.9c-.017.025-.037.045-.054.07 0 0-2.511 3.628-2.6 3.628-2.891 0 11.441 3.252 15.021 5.372l-.011-.009c.646-11.53-7.207-13.844-12.357-9.06" class="cls-10" transform="translate(-417.279 -193.557)"/>
                <path id="Path_85" d="M441.482 203.547a3.3 3.3 0 0 0-3.223-3.476 3.486 3.486 0 0 0-3.448 3.41 3.3 3.3 0 0 0 3.222 3.475 3.484 3.484 0 0 0 3.449-3.408" class="cls-12" transform="translate(-423.827 -197.33)"/>
                <path id="Path_86" d="M438.326 208.888a2.4 2.4 0 0 0 3.417-.448 2.541 2.541 0 0 0-.351-3.513 2.4 2.4 0 0 0-3.418.446 2.545 2.545 0 0 0 .352 3.516" class="cls-10" transform="translate(-425.346 -199.838)"/>
            </g>
            <path id="Path_87" d="M474 324.137a2.973 2.973 0 1 0-5.034 2.844l-8.366 11.394c-4.944-9.114-12.849-22.838-22.113-34.685 3.252-2.588 14.094-11.012 26.032-18.858a2.927 2.927 0 0 1-1.841-.394c-4.352 2.9-9.355 6.412-12.966 9.049l-26.72-22.758a3 3 0 1 0-.736.64l26.656 22.7c-5.327 3.909-9.414 7.11-11.253 8.57a109.962 109.962 0 0 0-9.714-10.789 5.2 5.2 0 0 1-1.251 1.58c14.612 18.176 28.711 44.831 34.888 57.487l4.075-3.033c-.657-1.184-2.06-3.933-4.066-7.675l8.468-12.489a2.968 2.968 0 0 0 3.941-3.583z" class="cls-13" transform="translate(-291.955 -175.121)"/>
            <path id="Path_88" d="M579.507 268.168a1.334 1.334 0 0 0-1.256 1.38 5.542 5.542 0 0 0 .072.838 5.622 5.622 0 0 0-.535-.663 1.378 1.378 0 0 0-1.881-.167 1.266 1.266 0 0 0 .111 1.821 6.154 6.154 0 0 0 .666.537 6.167 6.167 0 0 0-.867-.1 1.344 1.344 0 0 0-1.468 1.163 1.314 1.314 0 0 0 1.415 1.2 6.53 6.53 0 0 0 .868-.077 5.826 5.826 0 0 0-.687.523 1.264 1.264 0 0 0-.2 1.816 1.382 1.382 0 0 0 1.889-.128 6.009 6.009 0 0 0 .561-.649 6.1 6.1 0 0 0-.109.839 1.3 1.3 0 0 0 1.193 1.4 1.337 1.337 0 0 0 1.254-1.378 5.375 5.375 0 0 0-.072-.841 6.347 6.347 0 0 0 .535.661 1.376 1.376 0 0 0 1.882.169 1.262 1.262 0 0 0-.113-1.82 5.81 5.81 0 0 0-.667-.538 6.814 6.814 0 0 0 .87.1 1.356 1.356 0 0 0 1.468-1.166 1.317 1.317 0 0 0-1.415-1.2 6.952 6.952 0 0 0-.875.079 6 6 0 0 0 .7-.523 1.268 1.268 0 0 0 .194-1.818 1.385 1.385 0 0 0-1.889.129 5.977 5.977 0 0 0-.563.65 5.79 5.79 0 0 0 .11-.839 1.3 1.3 0 0 0-1.193-1.4" class="cls-5" transform="translate(-382.681 -176.453)"/>
            <path id="Path_89" d="M443.261 166.62a1.061 1.061 0 0 0-1 1.1 4.723 4.723 0 0 0 .057.666 4.366 4.366 0 0 0-.424-.526 1.1 1.1 0 0 0-1.5-.133 1.007 1.007 0 0 0 .09 1.447 4.926 4.926 0 0 0 .528.427 4.771 4.771 0 0 0-.689-.077 1.068 1.068 0 0 0-1.166.924 1.043 1.043 0 0 0 1.125.951 5.013 5.013 0 0 0 .69-.06 4.506 4.506 0 0 0-.547.415 1 1 0 0 0-.155 1.443 1.1 1.1 0 0 0 1.5-.1 4.692 4.692 0 0 0 .446-.515 4.982 4.982 0 0 0-.086.667 1.029 1.029 0 0 0 .948 1.115 1.062 1.062 0 0 0 1-1.094 4.392 4.392 0 0 0-.058-.668 5 5 0 0 0 .425.525 1.1 1.1 0 0 0 1.5.135 1 1 0 0 0-.09-1.446 4.491 4.491 0 0 0-.531-.427 5.312 5.312 0 0 0 .691.077 1.075 1.075 0 0 0 1.166-.927 1.044 1.044 0 0 0-1.123-.952 5.231 5.231 0 0 0-.7.064 4.566 4.566 0 0 0 .552-.417 1.006 1.006 0 0 0 .155-1.444 1.1 1.1 0 0 0-1.5.1 4.781 4.781 0 0 0-.448.516 4.611 4.611 0 0 0 .087-.666 1.032 1.032 0 0 0-.948-1.116" class="cls-6" transform="translate(-304.377 -117.633)"/>
            <path id="Path_90" d="M545.38 428.3a1.061 1.061 0 0 0-1 1.1 4.774 4.774 0 0 0 .057.666 4.372 4.372 0 0 0-.424-.526 1.1 1.1 0 0 0-1.495-.133 1.007 1.007 0 0 0 .089 1.447 5.017 5.017 0 0 0 .528.427 4.785 4.785 0 0 0-.688-.077 1.069 1.069 0 0 0-1.166.925 1.043 1.043 0 0 0 1.125.951 5 5 0 0 0 .69-.059 4.59 4.59 0 0 0-.547.415 1 1 0 0 0-.155 1.443 1.1 1.1 0 0 0 1.5-.1 4.691 4.691 0 0 0 .446-.515 4.97 4.97 0 0 0-.085.667 1.028 1.028 0 0 0 .948 1.115 1.061 1.061 0 0 0 1-1.094 4.332 4.332 0 0 0-.058-.668 5 5 0 0 0 .425.525 1.1 1.1 0 0 0 1.5.134 1 1 0 0 0-.09-1.446 4.535 4.535 0 0 0-.531-.428 5.254 5.254 0 0 0 .691.078 1.075 1.075 0 0 0 1.166-.927 1.044 1.044 0 0 0-1.123-.952 5.27 5.27 0 0 0-.7.063 4.6 4.6 0 0 0 .551-.416 1.006 1.006 0 0 0 .155-1.444 1.1 1.1 0 0 0-1.5.1 4.8 4.8 0 0 0-.448.516 4.543 4.543 0 0 0 .087-.666 1.031 1.031 0 0 0-.948-1.116" class="cls-6" transform="translate(-363.527 -269.206)"/>
            <g id="Group_11" transform="translate(80.877 120.593)">
                <path id="Path_91" d="M341.1 362.313c-2.672 1.959-1.427 5.709 1.965 5.709s4.28-3.213 3.748-7.672-6.246-23.55 14.447-23.55" class="cls-14" transform="translate(-327.614 -336.8)"/>
                <path id="Path_92" d="M415.247 362.313c2.672 1.959 1.423 5.709-1.964 5.709s-4.282-3.213-3.747-7.672 6.245-23.55-14.45-23.55H391" class="cls-14" transform="translate(-357.358 -336.8)"/>
                <path id="Path_93" d="M317.423 402.9c2.113 4.481 6.47 8.834 8.256 8.834a.772.772 0 0 0 .377-.113c-.146-1.577.171-3.362-.169-4.976-.351-1.662-1.806-4.884-.177-5.535.821-.328 1.452 1.05 1.756 2.036.286.937 1.654 3.813 3.391 4.255 2.77-1.621 7.3-3.076 15.162-3.076h2.926c7.382 0 11.829 1.283 14.639 2.782 1.116-.316 2.413-3.051 2.694-3.961.3-.985.93-2.364 1.747-2.036 1.637.65.174 3.872-.177 5.535a8.575 8.575 0 0 0 .422 4.509c3.925 5.473 3.723 14.7 1.231 20.291-2.48 6.7-7.645 11.317-22.02 11.317-16.431 0-20.824-6.032-22.939-14.305-14.316-1.729-2.276-18.273-13.5-20.341 0 0 2.747-5.736 6.382-5.217" class="cls-9" transform="translate(-311.041 -374.023)"/>
                <path id="Path_94" d="M393.711 413.564c0 1.182-5.35 2.143-11.957 2.143s-11.951-.961-11.951-2.143 5.35-2.137 11.951-2.137 11.957.956 11.957 2.137" class="cls-10" transform="translate(-345.078 -380.026)"/>
            </g>
            <g id="Group_12" transform="translate(65.251 60.222)">
                <path id="Path_95" d="M307.093 200.091c-2.139-.006-4.14 1.7-5.609 4.541-.045.088-.085.184-.13.274h11.476c-.045-.09-.083-.186-.13-.274-1.468-2.837-3.471-4.546-5.608-4.541" class="cls-5" transform="translate(-289.803 -197.242)"/>
                <path id="Path_96" d="M297.31 217.332h14.882a21.607 21.607 0 0 0-1.492-4.732h-11.9a21.744 21.744 0 0 0-1.49 4.729" class="cls-5" transform="translate(-287.461 -204.49)"/>
                <path id="Path_97" d="M323.654 204.776h6.425a17.982 17.982 0 0 0-10.923-4.91c1.788.717 3.341 2.48 4.5 4.91" class="cls-5" transform="translate(-300.115 -197.112)"/>
                <path id="Path_98" d="M331.782 217.332h8.311A15.333 15.333 0 0 0 337 212.6h-6.665a22.351 22.351 0 0 1 1.451 4.729" class="cls-5" transform="translate(-306.588 -204.49)"/>
                <path id="Path_99" d="M296.035 229.64h15.956a28.731 28.731 0 0 0-.452-4.729h-15.053a28.424 28.424 0 0 0-.451 4.729" class="cls-5" transform="translate(-286.723 -211.619)"/>
                <path id="Path_100" d="M312.17 249.523h-15.008a21.64 21.64 0 0 0 1.425 4.73h12.157a21.759 21.759 0 0 0 1.425-4.73" class="cls-5" transform="translate(-287.375 -225.875)"/>
                <path id="Path_101" d="M311.988 237.218h-15.974a28.339 28.339 0 0 0 .4 4.728h15.18a28.339 28.339 0 0 0 .4-4.728" class="cls-5" transform="translate(-286.71 -218.747)"/>
                <path id="Path_102" d="M313.078 196.166v-2.845h-9.785v2.861a19.385 19.385 0 0 1 9.785-.016" class="cls-10" transform="translate(-290.927 -193.321)"/>
                <path id="Path_103" d="M334.421 229.64h8.857a14.155 14.155 0 0 0-.9-4.729h-8.4a29.568 29.568 0 0 1 .444 4.729" class="cls-5" transform="translate(-308.7 -211.619)"/>
                <path id="Path_104" d="M306.921 266.818c2.142.006 4.14-1.663 5.61-4.455.089-.17.17-.356.255-.533h-11.73c.085.177.165.364.255.533 1.468 2.792 3.467 4.461 5.609 4.455" class="cls-5" transform="translate(-289.631 -233.004)"/>
                <path id="Path_105" d="M311.156 274.475h-.009a19.853 19.853 0 0 1-2.779-.2v3.406h5.474v-3.391a19.807 19.807 0 0 1-2.677.186h-.009" class="cls-10" transform="translate(-293.866 -240.211)"/>
                <path id="Path_106" d="M320.395 266.68a17.924 17.924 0 0 0 10.4-4.851h-6.3a9.99 9.99 0 0 1-4.1 4.851" class="cls-5" transform="translate(-300.833 -233.003)"/>
                <path id="Path_107" d="M295.793 199.866a17.978 17.978 0 0 0-10.925 4.91h6.432c1.158-2.431 2.709-4.194 4.5-4.91" class="cls-5" transform="translate(-280.254 -197.112)"/>
                <path id="Path_108" d="M334.115 241.946h8.344a14.175 14.175 0 0 0 .9-4.728h-8.85a29.291 29.291 0 0 1-.393 4.728" class="cls-5" transform="translate(-308.78 -218.747)"/>
                <path id="Path_109" d="M291.172 261.829h-6.3a17.926 17.926 0 0 0 10.4 4.851 9.987 9.987 0 0 1-4.1-4.851" class="cls-5" transform="translate(-280.255 -233.003)"/>
                <path id="Path_110" d="M330.617 254.253h6.543a15.374 15.374 0 0 0 3.1-4.73h-8.25a22.4 22.4 0 0 1-1.393 4.73" class="cls-5" transform="translate(-306.754 -225.875)"/>
                <path id="Path_111" d="M284.7 249.523h-8.25a15.382 15.382 0 0 0 3.1 4.73h6.545a22.4 22.4 0 0 1-1.392-4.73" class="cls-5" transform="translate(-275.378 -225.875)"/>
                <path id="Path_112" d="M286.216 212.6h-6.666a15.308 15.308 0 0 0-3.1 4.729h8.314a22.4 22.4 0 0 1 1.449-4.729" class="cls-5" transform="translate(-275.38 -204.49)"/>
                <path id="Path_113" d="M283.207 224.911h-8.4a14.2 14.2 0 0 0-.9 4.729h8.859a29.376 29.376 0 0 1 .444-4.729" class="cls-5" transform="translate(-273.903 -211.619)"/>
                <path id="Path_114" d="M282.756 237.218H273.9a14.2 14.2 0 0 0 .9 4.728h8.345a29.639 29.639 0 0 1-.392-4.728" class="cls-5" transform="translate(-273.903 -218.747)"/>
            </g>
            <g id="Group_13" transform="translate(58.31 51.211)">
                <path id="Path_115" d="M279 176.309c-1.391 0-2.695 1.108-3.65 2.954-.029.056-.056.119-.083.178h7.463c-.028-.058-.054-.122-.083-.178-.956-1.846-2.258-2.958-3.647-2.954" class="cls-5" transform="translate(-267.752 -174.456)"/>
                <path id="Path_116" d="M272.633 187.521h9.68a14.081 14.081 0 0 0-.97-3.075H273.6a14.148 14.148 0 0 0-.969 3.075" class="cls-5" transform="translate(-266.227 -179.169)"/>
                <path id="Path_117" d="M289.768 179.356h4.178a11.69 11.69 0 0 0-7.1-3.193 6.068 6.068 0 0 1 2.926 3.193" class="cls-5" transform="translate(-274.457 -174.371)"/>
                <path id="Path_118" d="M295.054 187.521h5.407a9.968 9.968 0 0 0-2.015-3.075h-4.334a14.486 14.486 0 0 1 .943 3.075" class="cls-5" transform="translate(-278.668 -179.169)"/>
                <path id="Path_119" d="M271.8 195.528h10.378a18.646 18.646 0 0 0-.294-3.076H272.1a18.6 18.6 0 0 0-.292 3.076" class="cls-5" transform="translate(-265.747 -183.806)"/>
                <path id="Path_120" d="M278.52 208.462h-5.982a14.15 14.15 0 0 0 .926 3.076h2.122a16.611 16.611 0 0 1 2.934-3.076" class="cls-5" transform="translate(-266.172 -193.08)"/>
                <path id="Path_121" d="M282.181 200.456h-10.39a18.538 18.538 0 0 0 .257 3.075h6.4a18.036 18.036 0 0 1 3.7-2.2c.014-.29.034-.578.034-.875" class="cls-5" transform="translate(-265.739 -188.443)"/>
                <path id="Path_122" d="M282.89 173.756V171.9h-6.365v1.861a12.6 12.6 0 0 1 6.365-.01" class="cls-10" transform="translate(-268.481 -171.905)"/>
                <path id="Path_123" d="M296.484 192.452a19.3 19.3 0 0 1 .288 3.077h2.128v-3.077z" class="cls-5" transform="translate(-280.042 -183.806)"/>
                <path id="Path_124" d="M275.07 216.466c.056.115.107.236.166.347a7.882 7.882 0 0 0 .712 1.1 15.593 15.593 0 0 1 .886-1.45z" class="cls-5" transform="translate(-267.638 -197.716)"/>
                <path id="Path_125" d="M271.646 176.162a11.7 11.7 0 0 0-7.106 3.193h4.181a6.068 6.068 0 0 1 2.925-3.193" class="cls-5" transform="translate(-261.539 -174.371)"/>
                <path id="Path_126" d="M297.147 200.456c0 .255-.011.5-.024.75a18.918 18.918 0 0 1 2.082-.75z" class="cls-5" transform="translate(-280.412 -188.443)"/>
                <path id="Path_127" d="M268.64 216.466h-4.1a11.415 11.415 0 0 0 4.7 2.712q.213-.492.458-.966a8.761 8.761 0 0 1-1.053-1.745" class="cls-5" transform="translate(-261.539 -197.716)"/>
                <path id="Path_128" d="M264.434 208.462h-5.368a9.985 9.985 0 0 0 2.015 3.076h4.258a14.54 14.54 0 0 1-.906-3.076" class="cls-5" transform="translate(-258.368 -193.08)"/>
                <path id="Path_129" d="M265.417 184.446h-4.336a10 10 0 0 0-2.015 3.075h5.408a14.651 14.651 0 0 1 .943-3.075" class="cls-5" transform="translate(-258.368 -179.169)"/>
                <path id="Path_130" d="M263.46 192.452h-5.467a9.227 9.227 0 0 0-.585 3.077h5.762a19.1 19.1 0 0 1 .289-3.077" class="cls-5" transform="translate(-257.409 -183.806)"/>
                <path id="Path_131" d="M263.167 200.456h-5.759a9.229 9.229 0 0 0 .585 3.075h5.429a19.031 19.031 0 0 1-.255-3.075" class="cls-5" transform="translate(-257.408 -188.443)"/>
                <path id="Path_132" d="M302.673 192.818h2.719c-.041-.122-.075-.246-.12-.366h-3.05v3.076h.451z" class="cls-5" transform="translate(-283.366 -183.806)"/>
            </g>
            <g id="Group_14" transform="translate(182.665 99.91)">
                <path id="Path_133" d="M596.762 337.291a3.111 3.111 0 1 1 3.11 3.145 3.127 3.127 0 0 1-3.11-3.145" class="cls-11" transform="translate(-578.328 -314.579)"/>
                <path id="Path_134" d="M595.183 306.333a16.01 16.01 0 0 1 5.913-1.284 14.03 14.03 0 0 0 .481-3.576c0-7.638-6.839-13.829-6.839-13.829s-6.838 6.191-6.838 13.829a14.03 14.03 0 0 0 .482 3.576 16.007 16.007 0 0 1 5.913 1.284 3.457 3.457 0 0 1 .887 0" class="cls-6" transform="translate(-573.195 -287.644)"/>
                <path id="Path_135" d="M616.406 331.19a14.014 14.014 0 0 0-3.077-.316c-.32 0-.638.011-.951.027a16.737 16.737 0 0 0-4.665.886 3.922 3.922 0 0 1 2.374 3.61c0 .132-.007.263-.019.391a8.451 8.451 0 0 1 3.7 6.939 8.574 8.574 0 0 1-.1 1.325 13.047 13.047 0 0 0 2.776.293c5.37 0 10.3-3.054 11.452-3.818-.845-1.394-5.09-7.893-11.484-9.338" class="cls-6" transform="translate(-584.671 -312.684)"/>
                <path id="Path_136" d="M573.06 331.763a16.835 16.835 0 0 0-4.6-.862c-.313-.016-.631-.027-.951-.027a14.014 14.014 0 0 0-3.077.316c-6.394 1.445-10.639 7.945-11.484 9.338 1.148.764 6.082 3.818 11.452 3.818a13.094 13.094 0 0 0 2.637-.266 9.357 9.357 0 0 1-.1-1.352 8.382 8.382 0 0 1 3.695-7.079c-.005-.084-.013-.167-.013-.252a3.919 3.919 0 0 1 2.435-3.633" class="cls-6" transform="translate(-552.951 -312.684)"/>
                <path id="Path_137" d="M594.838 347.03a3.655 3.655 0 0 1-3.659-2.822 7.556 7.556 0 0 0-3.107 6.269c0 6.169 6 7.847 6.758 8.034.706-.218 6.772-2.27 6.772-8.034a7.586 7.586 0 0 0-3.141-6.115 3.654 3.654 0 0 1-3.622 2.668" class="cls-6" transform="translate(-573.294 -320.408)"/>
            </g>
            <g id="Group_15">
                <path id="Path_138" d="M255.53 75.207a66.255 66.255 0 0 0-51.9-25.01c-16.553 0-37.981 6.161-52.779 26.048 6.782.924 5.549 6.783 5.549 6.783a3.5 3.5 0 0 1 3.7 3.391c3.909-.531 5.549 5.559 5.549 5.559l2.694-3.631-.117-3.983-8.785-7.145 1.171-3.4c4.685 1.523 9.839-.234 9.839-.234l-5.974-4.217 1.992-4.686s14.524 3.866 22.953-3.978l-.341-3.535h6.166l.036 2.477L212.2 59.6v-2.416h5.645V60.9c8.241 7.881 22.565 3.932 22.565 3.932l2.181 4.578-6.505 4.055c1.7.617 5.1.771 10.119.45l.97 3.657-7.386 5.973v2.779c3.423-4.17 7.4-3.168 7.4-3.168s1.677-4.628 5.723-3.988a11.571 11.571 0 0 1 2.614-3.966" class="cls-6" transform="translate(-137.377 -50.197)"/>
                <path id="Path_139" d="M118.828 148.09a35.3 35.3 0 0 1 27.3-12.877s-.2-7.684-7.125-6.419c0 0 1.084-4.58-3.375-4.338 0 0-.309-6.256-5.2-6.256-10.294 15.287-11.371 29.618-11.371 29.618z" class="cls-15" transform="translate(-118.828 -89.586)"/>
                <path id="Path_140" d="M273.674 163.037c-.564 1.355 18.052 5.4 28.116 9.157 9.765 3.835 12.388 12.64 12.088 20.443-.372 9.687-4.167 19.132-15.8 25.2-13.435 7.01-20.445 17.525-21.613 31.544-.277 3.327-1.9 22.822-2.339 28.25 6.015 5.281 10.123 8.363 12.982 10.5.708-.358 5.4-11.315 2.421-13.853a8.18 8.18 0 0 0-4.843-1.944c.016-11.8 9.128-13.727 14.378-14.138 1.936-23.046 11.011-29.518 23.2-29.589 14.134-27.69 5.181-55.941-17.631-61.746-10.786-2.55-24.969-2.071-25.845-3.824z" class="cls-11" transform="translate(-208.512 -115.558)"/>
                <path id="Rectangle_1" d="M0 0H59.872V6.741H0z" class="cls-13" transform="translate(35.93 32.58)"/>
                <path id="Path_141" d="M226.415 99.207h-27.234s-6.342-2.518-10.154-5.642l29.646 1.352h21.451l22.2-1.352c-3.812 3.124-10.153 5.642-10.153 5.642h-27.237" class="cls-10" transform="translate(-159.49 -75.317)"/>
                <path id="Path_142" d="M219.771 119.333h-34.136s-5.689-3.265-9.528-6.055l43.663.832 40.291-.832c-3.839 2.79-9.529 6.055-9.529 6.055H216.4" class="cls-10" transform="translate(-152.006 -86.736)"/>
                <path id="Path_143" d="M219.6 111.352h20.555c5.172 0 15.25 0 19.891-1.725l-.265-1.06c-12.068.928-15.092-1.592-15.092-1.592h-53s-3.25 2.52-15.318 1.592l-.265 1.06c4.641 1.725 14.72 1.725 19.892 1.725H219.6z" class="cls-11" transform="translate(-152.006 -83.085)"/>
                <path id="Path_144" d="M261.525 81.781c-7.824 2.387-18.3 1.46-24.044-5.583h-23.614c-5.743 7.043-16.22 7.971-24.044 5.583l-.8 1.724a91.556 91.556 0 0 0 16.842 1.458c5.835 0 19.759-.132 19.759-.132h.092s13.924.132 19.759.132a91.555 91.555 0 0 0 16.842-1.458z" class="cls-11" transform="translate(-159.49 -65.258)"/>
                <path id="Rectangle_2" d="M0 0H0.854V2.451H0z" class="cls-13" transform="translate(54.384 8.576)"/>
                <path id="Rectangle_3" d="M0 0H0.855V2.451H0z" class="cls-13" transform="translate(77.096 8.576)"/>
                <path id="Path_145" d="M214.432 103.28h3.168l-1.566-2.1z" class="cls-5" transform="translate(-174.205 -79.728)"/>
                <path id="Path_146" d="M223.873 103.28h3.166l-1.566-2.1z" class="cls-5" transform="translate(-179.673 -79.728)"/>
                <path id="Path_147" d="M233.316 103.28h3.166l-1.566-2.1z" class="cls-5" transform="translate(-185.143 -79.728)"/>
                <path id="Path_148" d="M242.758 103.28h3.166l-1.566-2.1z" class="cls-5" transform="translate(-190.612 -79.728)"/>
                <path id="Path_149" d="M252.2 103.28h3.166l-1.566-2.1z" class="cls-5" transform="translate(-196.081 -79.728)"/>
                <path id="Path_150" d="M261.644 103.28h3.166l-1.566-2.1z" class="cls-5" transform="translate(-201.551 -79.728)"/>
                <path id="Path_151" d="M271.087 103.28h3.166l-1.566-2.1z" class="cls-5" transform="translate(-207.021 -79.728)"/>
                <path id="Path_152" d="M280.528 103.28h3.166l-1.566-2.1z" class="cls-5" transform="translate(-212.49 -79.728)"/>
                <path id="Path_153" d="M289.972 103.28h3.165l-1.565-2.1z" class="cls-5" transform="translate(-217.96 -79.728)"/>
                <path id="Path_154" d="M299.414 103.28h3.166l-1.566-2.1z" class="cls-5" transform="translate(-223.429 -79.728)"/>
                <path id="Path_155" d="M308.858 103.28h3.164l-1.566-2.1z" class="cls-5" transform="translate(-228.9 -79.728)"/>
                <path id="Path_156" d="M318.3 103.28h3.166l-1.566-2.1z" class="cls-5" transform="translate(-234.368 -79.728)"/>
                <path id="Path_157" d="M327.74 103.28h3.166l-1.566-2.1z" class="cls-5" transform="translate(-239.837 -79.728)"/>
                <path id="Rectangle_4" d="M0 0H1.331V7.096H0z" class="cls-5" transform="translate(33.357 32.58)"/>
                <path id="Rectangle_5" d="M0 0H1.331V7.096H0z" class="cls-5" transform="translate(42.138 32.58)"/>
                <path id="Rectangle_6" d="M0 0H1.331V7.096H0z" class="cls-5" transform="translate(50.919 32.58)"/>
                <path id="Rectangle_7" d="M0 0H1.33V7.096H0z" class="cls-5" transform="translate(59.071 32.58)"/>
                <path id="Rectangle_8" d="M0 0H1.331V7.096H0z" class="cls-5" transform="translate(70.282 32.58)"/>
                <path id="Rectangle_9" d="M0 0H1.331V7.096H0z" class="cls-5" transform="translate(78.239 32.58)"/>
                <path id="Rectangle_10" d="M0 0H1.331V7.096H0z" class="cls-5" transform="translate(87.598 32.58)"/>
                <path id="Rectangle_11" d="M0 0H1.33V7.096H0z" class="cls-5" transform="translate(97.133 32.58)"/>
                <path id="Rectangle_12" d="M0 0H2.429V5.294H0z" class="cls-10" transform="translate(62.06 34.277)"/>
                <path id="Rectangle_13" d="M0 0H2.43V5.294H0z" class="cls-10" transform="translate(65.705 34.277)"/>
                <path id="Rectangle_14" d="M0 0H2.429V5.294H0z" class="cls-10" transform="translate(74.47 34.277)"/>
                <path id="Rectangle_15" d="M0 0H2.429V5.294H0z" class="cls-10" transform="translate(54.771 34.277)"/>
                <path id="Path_158" d="M191.983 143.621h64.805l3.809 6.106h-73.061z" class="cls-16" transform="translate(-158.626 -104.311)"/>
                <path id="Path_159" d="M256.493 143.429l-3.991 7.423h18.084l-3.939-7.481z" class="cls-17" transform="translate(-196.256 -104.167)"/>
                <path id="Path_160" d="M387.615 125.631a88.755 88.755 0 0 0-6.794-10.513 10 10 0 0 0-2.583 4.593c-2.487-1.7-4.764.264-5.77 3.822-3.859-2.65-10.826 1.524-5.392 13.888 5.507-4.614 10.273-5.14 14.437-2.828 1.041-2.084 2.828-2.53 5.06-2.233 0 0-1.488-4.167 1.043-6.73" class="cls-15" transform="translate(-261.464 -87.801)"/>
            </g>
            <path id="Path_161" d="M283.459 285.4a1.458 1.458 0 0 0-1.372 1.506 6.542 6.542 0 0 0 .079.915 6.1 6.1 0 0 0-.584-.723 1.506 1.506 0 0 0-2.055-.183 1.384 1.384 0 0 0 .122 1.99 6.507 6.507 0 0 0 .728.587 6.7 6.7 0 0 0-.948-.105 1.468 1.468 0 0 0-1.6 1.271 1.434 1.434 0 0 0 1.548 1.307 6.868 6.868 0 0 0 .948-.082 6.255 6.255 0 0 0-.752.57 1.38 1.38 0 0 0-.213 1.984 1.51 1.51 0 0 0 2.062-.141 6.13 6.13 0 0 0 .613-.709 6.857 6.857 0 0 0-.117.916 1.414 1.414 0 0 0 1.3 1.534 1.458 1.458 0 0 0 1.369-1.505 5.717 5.717 0 0 0-.077-.918 6.732 6.732 0 0 0 .584.722 1.5 1.5 0 0 0 2.056.185 1.378 1.378 0 0 0-.123-1.988 6.346 6.346 0 0 0-.73-.588 7.177 7.177 0 0 0 .95.107 1.479 1.479 0 0 0 1.6-1.274 1.435 1.435 0 0 0-1.543-1.309 7.292 7.292 0 0 0-.956.086 6.433 6.433 0 0 0 .759-.571 1.385 1.385 0 0 0 .212-1.986 1.511 1.511 0 0 0-2.063.141 6.819 6.819 0 0 0-.616.71 6.272 6.272 0 0 0 .121-.917 1.418 1.418 0 0 0-1.3-1.534" class="cls-3" transform="translate(-210.925 -186.432)"/>
            <g id="Group_16" transform="translate(140.542 151.204)">
                <path id="Path_162" d="M464.976 418.192l.252-.124.388-.191.389.19.253.124c.158.078.982.491 2.092 1.136a5.06 5.06 0 0 0 .617-2.366c-.057-1.954-2.083-3.638-4-5.012a32.9 32.9 0 0 0-3.858-2.3l-.209-.1-.207.1a32.957 32.957 0 0 0-3.859 2.3c-1.913 1.374-3.938 3.058-4 5.012.022 2.709 2.2 4.893 5.182 5.766.678-.591 1.409-1.147 2.138-1.67a40.615 40.615 0 0 1 4.814-2.865" class="cls-16" transform="translate(-452.842 -409.55)"/>
                <path id="Path_163" d="M471.722 419.086a.759.759 0 0 1-1.509 0c0-.375.754-3.8.754-3.8s.755 3.427.755 3.8" class="cls-17" transform="translate(-462.904 -412.871)"/>
                <path id="Path_164" d="M476.8 417.6a.76.76 0 0 1-1.308.755c-.187-.323-1.246-3.67-1.246-3.67s2.367 2.591 2.554 2.915" class="cls-17" transform="translate(-465.242 -412.523)"/>
                <path id="Path_165" d="M464.885 418.353a.76.76 0 0 1-1.308-.755c.187-.324 2.554-2.915 2.554-2.915s-1.06 3.346-1.247 3.67" class="cls-17" transform="translate(-459.012 -412.523)"/>
            </g>
            <g id="Group_17" transform="translate(143.502 160.513)">
                <path id="Path_166" d="M474.641 434.594a39.623 39.623 0 0 0-4.7-2.8l-.253-.125-.252.125a39.6 39.6 0 0 0-4.7 2.8c-2.329 1.671-4.794 3.72-4.866 6.1.037 4.292 4.507 7.515 9.816 7.523 5.308-.008 9.779-3.231 9.815-7.523-.07-2.379-2.536-4.429-4.865-6.1" class="cls-11" transform="translate(-459.875 -431.673)"/>
                <path id="Path_167" d="M482.858 443.279a.925.925 0 0 1-1.839 0c0-.455.919-4.628.919-4.628s.92 4.172.92 4.628" class="cls-17" transform="translate(-472.122 -435.715)"/>
                <path id="Path_168" d="M489.044 441.467a.924.924 0 0 1-1.591.919c-.228-.393-1.518-4.467-1.518-4.467s2.882 3.155 3.109 3.548" class="cls-17" transform="translate(-474.97 -435.291)"/>
                <path id="Path_169" d="M474.536 442.386a.925.925 0 0 1-1.591-.92c.227-.393 3.109-3.547 3.109-3.547s-1.291 4.073-1.518 4.467" class="cls-17" transform="translate(-467.387 -435.291)"/>
            </g>
            <g id="Group_18" transform="translate(154.693 114.871)">
                <path id="Path_170" d="M520.316 361.127a2.4 2.4 0 1 1 2.4 2.4 2.4 2.4 0 0 1-2.4-2.4" class="cls-3" transform="translate(-506.076 -343.777)"/>
                <path id="Path_171" d="M519.1 337.478a12.483 12.483 0 0 1 4.567-.981 10.579 10.579 0 0 0 .373-2.732c0-5.835-5.282-10.565-5.282-10.565s-5.283 4.729-5.283 10.565a10.61 10.61 0 0 0 .372 2.732 12.481 12.481 0 0 1 4.567.981 2.752 2.752 0 0 1 .686 0" class="cls-5" transform="translate(-502.112 -323.2)"/>
                <path id="Path_172" d="M535.49 356.467a10.923 10.923 0 0 0-2.376-.241c-.248 0-.494.007-.736.02a13.065 13.065 0 0 0-3.6.677 3 3 0 0 1 1.834 2.758c0 .1-.005.2-.015.3a6.44 6.44 0 0 1 2.857 5.3 6.519 6.519 0 0 1-.08 1.013 10.237 10.237 0 0 0 2.145.223 17.678 17.678 0 0 0 8.846-2.917c-.652-1.064-3.931-6.03-8.871-7.133" class="cls-5" transform="translate(-510.976 -342.33)"/>
                <path id="Path_173" d="M502.007 356.9a13.1 13.1 0 0 0-3.552-.658q-.363-.02-.735-.021a10.924 10.924 0 0 0-2.376.241c-4.94 1.1-8.219 6.069-8.871 7.133a17.678 17.678 0 0 0 8.846 2.917 10.239 10.239 0 0 0 2.037-.2 7.16 7.16 0 0 1-.075-1.033 6.388 6.388 0 0 1 2.854-5.408c0-.064-.01-.127-.01-.192a3 3 0 0 1 1.882-2.776" class="cls-5" transform="translate(-486.473 -342.33)"/>
                <path id="Path_174" d="M518.83 368.567a2.819 2.819 0 0 1-2.83-2.156 5.751 5.751 0 0 0-2.4 4.789c0 4.712 4.635 5.994 5.221 6.137.545-.167 5.231-1.735 5.231-6.137a5.777 5.777 0 0 0-2.427-4.671 2.819 2.819 0 0 1-2.8 2.038" class="cls-5" transform="translate(-502.188 -348.229)"/>
            </g>
            <g id="Group_19" transform="translate(106.947 176.433)">
                <path id="Path_175" d="M375.015 501.778l22.715 12.161 24.313-16.306s-24.22 2.268-47.028 4.145" class="cls-17" transform="translate(-374.167 -485.8)"/>
                <path id="Path_176" d="M391.367 491.84c-.125-.3-.2-.952.1-1.077l47.508-18.453a.584.584 0 0 1 .449 1.078l-47.136 18.927a.559.559 0 0 1-.225.046 1.02 1.02 0 0 1-.7-.521" class="cls-10" transform="translate(-383.577 -471.106)"/>
                <path id="Path_177" d="M373 504.261l21.038 13.885 26.982-20.514s-25.984 8.373-48.021 6.628" class="cls-11" transform="translate(-373 -485.8)"/>
                <path id="Path_178" d="M422.027 499.221c-.189-.259-.409-.881-.149-1.071l39.807-28.529a.584.584 0 0 1 .688.945l-39.335 28.9a.559.559 0 0 1-.207.1 1.022 1.022 0 0 1-.8-.343" class="cls-10" transform="translate(-401.242 -469.51)"/>
            </g>
            <g id="Group_20" transform="translate(128.642 1.233)">
                <path id="Path_179" d="M444.819 110.977a57.2 57.2 0 0 1 103.91 1.577" class="cls-18" transform="translate(-436.295 -67.807)"/>
                <path id="Path_180" fill="none" stroke="#ef5713" stroke-width="2.746px" d="M439.864 106.8a59.507 59.507 0 0 1 108.108 1.638l.4.766" transform="translate(-433.425 -64.625)"/>
                <path id="Path_181" d="M434.909 102.62a61.818 61.818 0 0 1 112.31 1.707l.333.814" class="cls-18" transform="translate(-430.555 -61.444)"/>
                <path id="Path_182" d="M566.416 53.127l-2.686 4.653-2.686-4.653z" class="cls-13" transform="translate(-503.616 -53.127)"/>
                <path id="Path_183" d="M552.362 53.184l-2.27 4.87-3.081-4.4z" class="cls-13" transform="translate(-495.488 -53.16)"/>
                <path id="Path_184" d="M538.422 54.469l-1.836 5.049-3.454-4.118z" class="cls-13" transform="translate(-487.448 -53.904)"/>
                <path id="Path_185" d="M524.705 56.971l-1.39 5.189-3.8-3.8z" class="cls-13" transform="translate(-479.562 -55.353)"/>
                <path id="Path_186" d="M511.312 60.671l-.932 5.291-4.116-3.453z" class="cls-13" transform="translate(-471.886 -57.497)"/>
                <path id="Path_187" d="M498.347 65.542l-.468 5.352-4.4-3.082z" class="cls-13" transform="translate(-464.48 -60.318)"/>
                <path id="Path_188" d="M485.908 71.545v5.373l-4.651-2.687z" class="cls-13" transform="translate(-457.401 -63.795)"/>
                <path id="Path_189" d="M474.088 78.636l.468 5.352-4.867-2.271z" class="cls-13" transform="translate(-450.701 -67.903)"/>
                <path id="Path_190" d="M462.979 86.76l.934 5.291-5.047-1.838z" class="cls-13" transform="translate(-444.431 -72.608)"/>
                <path id="Path_191" d="M452.666 95.855l1.39 5.19-5.188-1.391z" class="cls-13" transform="translate(-438.641 -77.877)"/>
                <path id="Path_192" d="M443.225 105.855l1.838 5.048-5.289-.934z" class="cls-13" transform="translate(-433.372 -83.668)"/>
                <path id="Path_193" d="M434.73 116.679l2.27 4.869-5.35-.469z" class="cls-13" transform="translate(-428.668 -89.938)"/>
                <path id="Path_194" d="M427.245 128.246l2.686 4.653h-5.37z" class="cls-13" transform="translate(-424.56 -96.638)"/>
                <path id="Path_195" d="M702.9 132.895h-5.373l2.687-4.652z" class="cls-13" transform="translate(-582.673 -96.638)"/>
                <path id="Path_196" d="M708.027 145.513l-5.318-.773 3.329-4.216z" class="cls-13" transform="translate(-585.673 -103.75)"/>
                <path id="Path_197" d="M695.84 121.076l-5.353.47 2.271-4.868z" class="cls-13" transform="translate(-578.594 -89.938)"/>
                <path id="Path_198" d="M687.8 109.966l-5.292.935 1.838-5.048z" class="cls-13" transform="translate(-573.972 -83.668)"/>
                <path id="Path_199" d="M678.844 99.652l-5.191 1.393 1.391-5.189z" class="cls-13" transform="translate(-568.843 -77.877)"/>
                <path id="Path_200" d="M669.04 90.212l-5.05 1.839.934-5.29z" class="cls-13" transform="translate(-563.246 -72.609)"/>
                <path id="Path_201" d="M658.464 81.717l-4.87 2.272.469-5.351z" class="cls-13" transform="translate(-557.224 -67.904)"/>
                <path id="Path_202" d="M647.195 74.231l-4.654 2.688v-5.371z" class="cls-13" transform="translate(-550.822 -63.797)"/>
                <path id="Path_203" d="M634.673 67.812l-4.4 3.084-.468-5.352z" class="cls-13" transform="translate(-543.444 -60.319)"/>
                <path id="Path_204" d="M621.642 62.51l-4.117 3.455-.932-5.29z" class="cls-13" transform="translate(-535.792 -57.499)"/>
                <path id="Path_205" d="M608.195 58.363l-3.8 3.8L603 56.975z" class="cls-13" transform="translate(-527.921 -55.356)"/>
                <path id="Path_206" d="M594.438 55.4l-3.454 4.118-1.837-5.048z" class="cls-13" transform="translate(-519.895 -53.907)"/>
                <path id="Path_207" d="M580.478 53.655l-3.083 4.4-2.269-4.869z" class="cls-13" transform="translate(-511.773 -53.163)"/>
                <path id="Path_208" d="M529.153 100.771a.3.3 0 0 0 .207.567.2.2 0 1 1 .136.377l-.155.057-6.856-3.192-.255.547 7.084 3.3.39-.141a.8.8 0 1 0-.551-1.509m-7.039-8.381l-3.055-1.326-1.48 2.982 1.281 3.514.775.36 1.5.7.254-.546-2.05-.955-1.107-3.035 1.111-2.238 2.292 1 1.109 3.036-4.652 10-.154.056a.2.2 0 0 1-.14-.377.3.3 0 0 0-.2-.565.8.8 0 0 0 .552 1.511l.386-.143L523.4 95.9z" class="cls-3" transform="translate(-478.143 -75.101)"/>
                <path id="Path_209" d="M494.645 119.7a.3.3 0 0 0 .39.462.2.2 0 0 1 .282.024.2.2 0 0 1-.027.283l-.125.106-7.537-.653-.051.6 7.785.674.318-.267a.8.8 0 0 0-1.035-1.229m-9.48-5.468l-3.324-.2-.371 3.309 2.406 2.862.85.074 1.648.143.053-.6-2.254-.2-2.077-2.473.279-2.483 2.495.153 2.079 2.473-.949 10.988-.127.106a.2.2 0 0 1-.26-.307.3.3 0 1 0-.387-.461.8.8 0 0 0 1.035 1.23l.315-.266 1-11.486z" class="cls-3" transform="translate(-457.524 -88.402)"/>
                <path id="Path_210" d="M467.1 148.744a.3.3 0 0 0 .523.3.2.2 0 0 1 .274-.073.2.2 0 0 1 .073.275l-.082.142-7.3 1.964.157.582 7.544-2.029.208-.36a.8.8 0 1 0-1.392-.8m-10.78-1.9l-3.192.948.782 3.236 3.24 1.868.825-.221 1.6-.431-.155-.582-2.184.587-2.8-1.613-.587-2.428 2.4-.71 2.8 1.613 2.866 10.65-.082.143a.2.2 0 0 1-.35-.2.3.3 0 0 0-.521-.3.8.8 0 0 0 1.393.8l.2-.358-2.993-11.135z" class="cls-3" transform="translate(-441.111 -107.413)"/>
                <path id="Path_211" d="M651.694 158.627a.3.3 0 0 0-.521.3.2.2 0 0 1-.073.274.2.2 0 0 1-.274-.073l-.083-.143 1.952-7.307-.584-.157-2.014 7.551.208.361a.8.8 0 0 0 1.389-.806m7.034-8.389L659.5 147l-3.2-.941-3.237 1.871-.219.827-.425 1.6.581.157.584-2.185 2.8-1.617 2.395.705-.581 2.429-2.8 1.618-10.657-2.843-.082-.142a.2.2 0 0 1 .074-.275.2.2 0 0 1 .272.073.3.3 0 0 0 .413.108.293.293 0 0 0 .107-.409.8.8 0 0 0-1.392.806l.21.355 11.139 2.976z" class="cls-3" transform="translate(-551.686 -106.957)"/>
                <path id="Path_212" d="M628.541 127.025a.3.3 0 0 0-.423.039.3.3 0 0 0 .038.424.2.2 0 0 1 .025.282.2.2 0 0 1-.283.024l-.125-.106-.666-7.534-.6.052.69 7.784.318.268a.8.8 0 0 0 1.028-1.233m3.741-10.288l-.379-3.307-3.325.209-2.4 2.865.076.852.148 1.647.6-.051-.2-2.254 2.076-2.476 2.491-.157.284 2.481-2.074 2.478-10.99.976-.127-.1a.2.2 0 0 1-.023-.284.2.2 0 0 1 .282-.024.3.3 0 0 0 .422-.04.293.293 0 0 0-.037-.421.8.8 0 0 0-1.031 1.232l.318.262 11.485-1.013z" class="cls-3" transform="translate(-536.486 -88.056)"/>
                <path id="Path_213" d="M597.855 104.67a.3.3 0 0 0-.384.181.3.3 0 0 0 .178.385.2.2 0 0 1 .122.256.2.2 0 0 1-.257.12l-.155-.057-3.2-6.852-.548.255 3.312 7.079.392.143a.8.8 0 0 0 .544-1.51m0-10.947l-1.489-2.978-3.053 1.333-1.275 3.514.362.775.7 1.5.547-.254-.958-2.049 1.1-3.037 2.288-1 1.116 2.234-1.1 3.038-9.991 4.672-.154-.055a.2.2 0 1 1 .136-.378.3.3 0 0 0 .206-.565.8.8 0 0 0-.548 1.512l.388.136 10.444-4.879z" class="cls-3" transform="translate(-517.615 -74.917)"/>
                <path id="Path_214" d="M563.338 95.554a.3.3 0 0 0-.3.3.3.3 0 0 0 .3.3.2.2 0 0 1 .2.2.2.2 0 0 1-.2.2h-.164l-5.354-5.343-.427.426 5.532 5.519h.417a.8.8 0 0 0-.005-1.606m-3.747-10.281l-2.417-2.288-2.411 2.3v3.739l.607.6 1.171 1.167.427-.425-1.6-1.6v-3.231l1.808-1.722 1.812 1.718v3.231l-7.79 7.807h-.165a.2.2 0 0 1-.2-.2.2.2 0 0 1 .2-.2.3.3 0 0 0 0-.6.8.8 0 1 0 0 1.607h.412l8.146-8.156z" class="cls-3" transform="translate(-497.353 -70.419)"/>
                <path id="Path_215" d="M552.846 96.48l-3.186.574-1.751 2.517L551.1 99z" class="cls-5" transform="translate(-496.008 -78.238)"/>
                <path id="Path_216" d="M552.842 96.48l-3.187.574-1.749 2.517 3.186-.571z" class="cls-5" transform="translate(-496.006 -78.239)"/>
                <path id="Path_217" d="M533.173 100.456l3.187-.574 2.518 1.748-3.186.574z" class="cls-5" transform="translate(-487.472 -80.209)"/>
                <path id="Path_218" d="M544.779 104.662l2.79 1.94-4.731.852z" class="cls-5" transform="translate(-493.071 -82.978)"/>
                <path id="Path_219" d="M544.883 91.329l-1.98-1.376-1.376 1.98.379 2.1 1.98 1.375 1.376-1.98-.378-2.1z" class="cls-5" transform="translate(-492.311 -74.457)"/>
                <path id="Path_220" d="M514.858 106.134l-2.8 1.629-.784 2.963 2.8-1.628z" class="cls-5" transform="translate(-474.79 -83.83)"/>
                <path id="Path_221" d="M514.856 106.137l-2.8 1.629-.782 2.963 2.8-1.628z" class="cls-5" transform="translate(-474.79 -83.832)"/>
                <path id="Path_222" d="M496.546 117.423l2.8-1.629 2.964.782-2.8 1.63z" class="cls-5" transform="translate(-466.257 -89.426)"/>
                <path id="Path_223" d="M509.936 117.994l3.287.868-4.155 2.419z" class="cls-5" transform="translate(-473.51 -90.7)"/>
                <path id="Path_224" d="M505.092 105.693l-2.331-.616-.614 2.331 1.075 1.845 2.331.616.615-2.331-1.075-1.845z" class="cls-5" transform="translate(-469.501 -83.218)"/>
                <path id="Path_225" d="M482.707 128.956l-2.071 2.488.277 3.052 2.071-2.488z" class="cls-5" transform="translate(-457.041 -97.05)"/>
                <path id="Path_226" d="M482.7 128.962l-2.071 2.488.279 3.052 2.072-2.487z" class="cls-5" transform="translate(-457.038 -97.053)"/>
                <path id="Path_227" d="M468.348 145.813l2.073-2.487 3.051-.279-2.072 2.488z" class="cls-5" transform="translate(-449.923 -105.211)"/>
                <path id="Path_228" d="M481.479 142.639l3.385-.309-3.076 3.694z" class="cls-5" transform="translate(-457.53 -104.796)"/>
                <path id="Path_229" d="M472.4 132.978l-2.4.218.22 2.4 1.64 1.368 2.4-.22-.22-2.4-1.641-1.367z" class="cls-5" transform="translate(-450.877 -99.379)"/>
                <path id="Path_230" d="M658.493 145.153l-2.093-2.473-3.056-.256 2.091 2.473z" class="cls-5" transform="translate(-557.081 -104.851)"/>
                <path id="Path_231" d="M658.491 145.15l-2.091-2.47-3.054-.255 2.091 2.47z" class="cls-5" transform="translate(-557.08 -104.851)"/>
                <path id="Path_232" d="M647.862 128.372l2.091 2.472-.253 3.056-2.091-2.472z" class="cls-5" transform="translate(-553.756 -96.711)"/>
                <path id="Path_233" d="M647.73 142.053l-.284 3.388-3.1-3.672z" class="cls-5" transform="translate(-551.865 -104.471)"/>
                <path id="Path_234" d="M657.779 134.919l.2-2.4-2.4-.2-1.63 1.375-.2 2.4 2.4.2 1.63-1.377z" class="cls-5" transform="translate(-557.311 -98.997)"/>
                <path id="Path_235" d="M629.223 116.944l-2.808-1.61-2.961.8 2.811 1.61z" class="cls-5" transform="translate(-539.767 -89.159)"/>
                <path id="Path_236" d="M629.221 116.942l-2.809-1.606-2.957.8 2.81 1.606z" class="cls-5" transform="translate(-539.767 -89.16)"/>
                <path id="Path_237" d="M613.825 105.8l2.81 1.608.8 2.957-2.808-1.608z" class="cls-5" transform="translate(-534.189 -83.635)"/>
                <path id="Path_238" d="M618.049 117.593l.89 3.281-4.172-2.389z" class="cls-5" transform="translate(-534.734 -90.468)"/>
                <path id="Path_239" d="M625.962 106.942l-.634-2.326-2.327.634-1.06 1.851.631 2.328 2.328-.634 1.06-1.851z" class="cls-5" transform="translate(-538.89 -82.951)"/>
                <path id="Path_240" d="M592.565 100.245l-3.19-.551-2.5 1.767 3.191.551z" class="cls-5" transform="translate(-518.577 -80.1)"/>
                <path id="Path_241" d="M592.561 100.245l-3.189-.548-2.5 1.767 3.189.549z" class="cls-5" transform="translate(-518.575 -80.102)"/>
                <path id="Path_242" d="M573.905 96.432l3.189.55 1.769 2.5-3.192-.55z" class="cls-5" transform="translate(-511.066 -78.21)"/>
                <path id="Path_243" d="M582.324 104.526l1.96 2.777-4.739-.817z" class="cls-5" transform="translate(-514.332 -82.899)"/>
                <path id="Path_244" d="M586.87 91.762l-1.391-1.969-1.969 1.392-.365 2.1 1.392 1.97 1.969-1.391.364-2.1z" class="cls-5" transform="translate(-516.417 -74.365)"/>
            </g>
            <g id="Group_21" transform="translate(209.797 43.973)">
                <path id="Path_245" d="M674.209 190.808c0-.017.008-.035.013-.052.626-2.34 1.014-9.561.633-17.751-.374-8.039-3.5-18.4-4.772-18.3-21.613 1.558-35.515 22.265-30.989 50.012l1.826 2.409a11.316 11.316 0 0 1 1.093-1.369c4.309-5.13 16.157-2.945 24.418-6.378a12.362 12.362 0 0 0 7.664-8.2c.027-.086.059-.17.085-.258.009-.032.018-.076.028-.111" class="cls-5" transform="translate(-629.484 -154.703)"/>
                <path id="Path_246" d="M662.167 270.584c9.938-.3 11.47 1.764 10.029 5.355a49.376 49.376 0 0 1-5.841 11c-2.227 3.282-4.155 4.746-5.774 4.72-2.879-.048-14.83-14.742-14.83-14.742 1.717-5.068 10.487-6.15 16.417-6.334" class="cls-13" transform="translate(-633.835 -221.808)"/>
                <path id="Path_247" d="M641.635 226.831c-1.768-15.556 4.7-38.266 10.646-35.782 5.768 2.409 3.943 5.184 2.7 6.864-.989 1.339-8.908 6.353-12.851 29.28-.844 4.918-.495-.362-.495-.362z" class="cls-20" transform="translate(-631.279 -175.647)"/>
                <path id="Path_248" d="M639.766 288.515c-4.9 14.9 5.641 21.2 6.987 20.972 1.171-.2-.179-7.722-1.24-11.127s-3.194-8.079-5.271-10.449z" class="cls-10" transform="translate(-629.621 -231.861)"/>
                <path id="Path_249" d="M627.943 261.49a2.744 2.744 0 0 1-2.632 2.9 2.836 2.836 0 0 1-2.909-2.7 2.75 2.75 0 0 1 2.637-2.9 2.831 2.831 0 0 1 2.9 2.7" class="cls-10" transform="translate(-620.308 -214.993)"/>
                <path id="Path_250" d="M635.4 272.778c1.495 2.562 1.632 5.4.3 6.323s-3.623-.4-5.124-2.968-1.635-5.4-.3-6.325 3.628.4 5.128 2.97" class="cls-10" transform="translate(-624.337 -221.204)"/>
                <path id="Path_251" d="M627.42 243a.977.977 0 1 1-.977-.977.977.977 0 0 1 .977.977" class="cls-10" transform="translate(-622.086 -205.281)"/>
                <path id="Path_252" d="M619.37 248.721a.969.969 0 1 1-.969-.97.97.97 0 0 1 .969.97" class="cls-10" transform="translate(-617.432 -208.599)"/>
                <path id="Path_253" fill="none" stroke="#1a1818" stroke-width="0.829px" d="M618.928 247.37l3.324 5.24.3-6.619" transform="translate(-618.298 -207.58)"/>
                <path id="Path_254" d="M680.979 310.569a1.314 1.314 0 1 1-1.3-1.328 1.314 1.314 0 0 1 1.3 1.328" class="cls-3" transform="translate(-652.719 -244.216)"/>
                <path id="Path_255" d="M665.859 301.37c-.463-.372-4.713-4.3-4.343-4.769s5.22 2.719 5.684 3.088a1.075 1.075 0 0 1-1.341 1.681" class="cls-3" transform="translate(-642.953 -236.868)"/>
                <path id="Path_256" d="M670.562 295.5c-.508-.307-5.238-3.646-4.934-4.156s5.533 2.008 6.041 2.314a1.074 1.074 0 1 1-1.108 1.841" class="cls-3" transform="translate(-645.341 -233.811)"/>
                <path id="Path_257" d="M674.851 289.135c-.542-.242-5.646-2.977-5.407-3.52s5.738 1.314 6.281 1.555a1.075 1.075 0 0 1-.874 1.965" class="cls-3" transform="translate(-647.554 -230.474)"/>
                <path id="Path_258" d="M678.505 283.193c-.574-.148-6.062-2-5.915-2.57s5.875.341 6.45.488a1.075 1.075 0 0 1-.535 2.082" class="cls-3" transform="translate(-649.38 -227.531)"/>
                <path id="Path_259" d="M681.753 275.963c-.59-.055-6.3-1.009-6.248-1.6s5.855-.595 6.447-.541a1.075 1.075 0 0 1-.2 2.14" class="cls-3" transform="translate(-651.07 -223.688)"/>
                <path id="Path_260" d="M686.977 302.83a1.314 1.314 0 1 1-1.3-1.327 1.313 1.313 0 0 1 1.3 1.327" class="cls-3" transform="translate(-656.193 -239.734)"/>
                <path id="Path_261" d="M692.172 294.814a1.314 1.314 0 1 1-1.3-1.328 1.313 1.313 0 0 1 1.3 1.328" class="cls-3" transform="translate(-659.202 -235.091)"/>
                <path id="Path_262" d="M696.566 286.251a1.315 1.315 0 1 1-1.3-1.328 1.315 1.315 0 0 1 1.3 1.328" class="cls-3" transform="translate(-661.746 -230.13)"/>
                <path id="Path_263" d="M699.887 277.408a1.314 1.314 0 1 1-1.3-1.327 1.313 1.313 0 0 1 1.3 1.327" class="cls-3" transform="translate(-663.671 -225.009)"/>
                <path id="Path_264" d="M668.055 177.265c2.544-2.544 10.832-10.426 21.752-10.426" class="cls-20" transform="translate(-646.754 -161.732)"/>
                <path id="Path_265" d="M676.5 187.193c5.494-4.363 14.565-8.378 19.434-8.378" class="cls-20" transform="translate(-651.646 -168.669)"/>
                <path id="Path_266" d="M672.053 220.361a9.78 9.78 0 1 1 10.307 9.224 9.782 9.782 0 0 1-10.307-9.224" class="cls-11" transform="translate(-649.061 -186.755)"/>
                <path id="Path_267" d="M689.436 221.432a2.742 2.742 0 0 1 2.169-2.132 2.744 2.744 0 0 1-1.58-4.81 2.743 2.743 0 0 1-3.771-3.375 3.884 3.884 0 0 0-6.832 1.354 2.742 2.742 0 0 1-2.931-.813 2.744 2.744 0 0 1-3.376 3.773 2.743 2.743 0 0 1-1.039 4.955 2.744 2.744 0 0 1 1.58 4.811 2.742 2.742 0 0 1 3.771 3.375 3.886 3.886 0 0 0 6.833-1.352 2.743 2.743 0 0 1 2.931.812 2.744 2.744 0 0 1 3.377-3.772 2.742 2.742 0 0 1-1.131-2.823" class="cls-10" transform="translate(-649.082 -186.776)"/>
                <path id="Path_268" d="M678.356 223.867a7.127 7.127 0 1 1 7.511 6.722 7.127 7.127 0 0 1-7.511-6.722" class="cls-5" transform="translate(-652.715 -190.408)"/>
                <path id="Path_269" d="M678.356 223.867a7.127 7.127 0 1 1 7.511 6.722 7.127 7.127 0 0 1-7.511-6.722z" class="cls-22" transform="translate(-652.715 -190.408)"/>
                <path id="Path_270" d="M691.247 223.677a4.5 4.5 0 0 1 1.367-3.488 4.5 4.5 0 0 1-6.08-3.077 4.5 4.5 0 0 1-5.7 3.73 4.5 4.5 0 0 1 .378 6.8 4.506 4.506 0 0 1 6.081 3.076 4.5 4.5 0 0 1 5.7-3.728 4.5 4.5 0 0 1-1.744-3.315" class="cls-10" transform="translate(-654.154 -190.852)"/>
                <path id="Path_271" d="M687.19 228.782a3.408 3.408 0 1 1 3.591 3.218 3.407 3.407 0 0 1-3.591-3.214" class="cls-4" transform="translate(-657.835 -195.528)"/>
                <path id="Path_272" d="M687.19 228.782a3.408 3.408 0 1 1 3.591 3.218 3.407 3.407 0 0 1-3.591-3.218z" class="cls-22" transform="translate(-657.835 -195.528)"/>
                <path id="Path_273" d="M690.584 230.671a1.979 1.979 0 1 1 2.085 1.867 1.979 1.979 0 0 1-2.085-1.867" class="cls-10" transform="translate(-659.802 -197.496)"/>
                <path id="Path_274" d="M690.584 230.671a1.979 1.979 0 1 1 2.085 1.867 1.979 1.979 0 0 1-2.085-1.867z" class="cls-22" transform="translate(-659.802 -197.496)"/>
                <path id="Path_275" d="M672.945 253.491c2.871 1.484 3.218 3.033 1.828 3.77-2.215 1.174-6.717 1.865-9.315 2.3 1.811-.258 3.148-.425 4.526-.573 1.946-.209 3.822-.356 6.424-.813 1.483-.26 1.7-2.835-2.245-4.246" class="cls-11" transform="translate(-645.25 -211.924)"/>
                <path id="Path_276" d="M704.745 251.937c-1.888 1.6-2.5 3.17-1.238 3.515l-1.216.479-1.068.37c-.284-.9.363-2.34 2.434-3.665" class="cls-11" transform="translate(-665.93 -211.024)"/>
                <path id="Path_277" d="M647.56 244.89c2.336-7.668 6.159-14.3 8.008-15.748.682-.536 1.363 4.576.682 5.209a47.25 47.25 0 0 0-8.69 10.539" class="cls-23" transform="translate(-634.883 -197.797)"/>
                <path id="Path_278" d="M647.057 256.2c4.373-6.831 7.457-9.055 8.9-10.3 1.224-1.058 3.627 2.02 2.142 2.629a27.541 27.541 0 0 0-11.043 7.676" class="cls-23" transform="translate(-634.592 -207.4)"/>
                <path id="Path_279" d="M649.984 261.237c6.266-5.149 9.537-6.273 11.336-6.916 1.858-.664 3.647 2.666 1.381 2.943a28.75 28.75 0 0 0-12.718 3.973" class="cls-23" transform="translate(-636.287 -212.354)"/>
                <path id="Path_280" d="M658.494 196.174c.694-1.131 1.943-2.263 2.823-2.263 1.169 0 4.008 1.563 3.9 3.115-.074 1.01-1.169 2.032-1.717 2.544a2.757 2.757 0 0 0-.961-3.469 3.462 3.462 0 0 0-4.041.073" class="cls-23" transform="translate(-641.216 -177.413)"/>
                <path id="Path_281" d="M709.669 158.678c-.438-1.078-2.218-1.306-2.218-1.306a13.655 13.655 0 0 1 1.949-.337.82.82 0 0 1 .835.4 5.447 5.447 0 0 1 .949 2.263.7.7 0 0 1-.438.73 4.039 4.039 0 0 1-.666.1c-.265.038-.867.118-.867.118a1.949 1.949 0 0 0 .456-1.974" class="cls-23" transform="translate(-669.574 -156.054)"/>
                <path id="Path_282" d="M714.2 170.689a2.1 2.1 0 0 0-1.448-1.521 6.384 6.384 0 0 1 1.4-.158.82.82 0 0 1 .835.4 5.222 5.222 0 0 1 .724 2.3.7.7 0 0 1-.438.73c-.195.066-1.528.28-1.528.28a2.079 2.079 0 0 0 .451-2.032" class="cls-23" transform="translate(-672.644 -162.99)"/>
                <path id="Path_283" d="M717.471 183.577a1.766 1.766 0 0 0-1.362-1.558 4.84 4.84 0 0 1 1.239-.147.867.867 0 0 1 .887.365 4.613 4.613 0 0 1 .5 2.41.769.769 0 0 1-.418.742c-.194.071-1.521.32-1.521.32a2.1 2.1 0 0 0 .679-2.132" class="cls-23" transform="translate(-674.589 -170.438)"/>
                <path id="Path_284" d="M718.993 195.7a1.691 1.691 0 0 0-1.265-1.582c.584-.072 1.094-.135 1.46-.145a.606.606 0 0 1 .657.34 5.05 5.05 0 0 1 .309 2.409.815.815 0 0 1-.418.742c-.193.072-1.57.305-1.57.305a2.03 2.03 0 0 0 .827-2.069" class="cls-23" transform="translate(-675.527 -177.446)"/>
                <path id="Path_285" d="M719.523 207.871a1.691 1.691 0 0 0-1.152-1.667c.588-.032 1.1-.06 1.467-.043a.6.6 0 0 1 .632.385 5.044 5.044 0 0 1 .141 2.424.816.816 0 0 1-.47.711c-.2.058-1.588.195-1.588.195a2.03 2.03 0 0 0 .969-2.006" class="cls-23" transform="translate(-675.899 -184.506)"/>
                <path id="Path_286" d="M719.777 220.218a3.566 3.566 0 0 0-1.242-1.789c.588-.032 1.461-.256 1.753.145.4.557.242 1.169.219 1.875-.014.4-.195 2.045-.195 2.045a9.058 9.058 0 0 0-.535-2.276" class="cls-23" transform="translate(-675.994 -191.562)"/>
            </g>
            <g id="Group_22" transform="translate(.267 47.584)">
                <path id="Path_287" d="M179.68 222.657a2.434 2.434 0 1 1-2.433-2.491 2.463 2.463 0 0 1 2.433 2.491" class="cls-6" transform="translate(-151.523 -196.232)"/>
                <path id="Path_288" d="M180.338 163.285c.28 7.117.236 17.445.189 22.724" class="cls-24" transform="translate(-154.724 -163.285)"/>
                <path id="Path_289" d="M180.259 235.5c.274 9.8.1 22.463.1 22.463" class="cls-24" transform="translate(-154.678 -205.114)"/>
                <path id="Path_290" d="M153.068 170.576c5.16 5.591 8.8 14.964 10.452 19.84" class="cls-24" transform="translate(-138.928 -167.508)"/>
                <path id="Path_291" d="M143.324 176.815c6.105 4.509 11.412 13.037 13.925 17.5" class="cls-24" transform="translate(-133.284 -171.122)"/>
                <path id="Path_292" d="M134.885 184.81c6.839 3.256 13.631 10.634 16.913 14.529" class="cls-24" transform="translate(-128.396 -175.753)"/>
                <path id="Path_293" d="M128.082 194.294c7.327 1.885 15.368 7.841 19.3 11.03" class="cls-24" transform="translate(-124.455 -181.246)"/>
                <path id="Path_294" d="M123.133 204.911c7.558.441 16.569 4.758 21.006 7.131" class="cls-24" transform="translate(-121.589 -187.396)"/>
                <path id="Path_295" d="M120.225 215.963c7.517-1.022 17.182 1.493 21.968 2.969" class="cls-24" transform="translate(-119.904 -193.66)"/>
                <path id="Path_296" d="M119.463 225.57c7.2-2.457 17.174-1.84 22.14-1.311" class="cls-24" transform="translate(-119.463 -198.325)"/>
                <path id="Path_297" d="M120.867 232.063c6.634-3.8 16.554-5.115 21.522-5.551" class="cls-24" transform="translate(-120.276 -199.908)"/>
                <path id="Path_298" d="M124.4 237.692c5.818-5.017 15.329-8.219 20.126-9.6" class="cls-24" transform="translate(-122.321 -200.822)"/>
                <path id="Path_299" d="M129.923 242.907c4.795-6.047 13.551-11.023 18.006-13.3" class="cls-24" transform="translate(-125.522 -201.699)"/>
                <path id="Path_300" d="M137.245 247.533c3.6-6.862 11.284-13.434 15.241-16.53" class="cls-24" transform="translate(-129.763 -202.509)"/>
                <path id="Path_301" d="M146.105 251.4c2.274-7.431 8.611-15.365 11.927-19.169" class="cls-24" transform="translate(-134.895 -203.223)"/>
                <path id="Path_302" d="M156.18 254.387c.863-7.735 5.626-16.742 8.186-21.119" class="cls-24" transform="translate(-140.731 -203.821)"/>
                <path id="Path_303" d="M168.069 256.848c.393-7.91 2.663-17.241 3.954-22.023" class="cls-24" transform="translate(-147.617 -204.723)"/>
                <path id="Path_304" d="M166.071 165.732c3.785 6.624 5.262 16.565 5.8 21.707" class="cls-24" transform="translate(-146.46 -164.702)"/>
                <path id="Path_305" d="M193.739 170.576c-5.16 5.592-8.8 14.966-10.449 19.841" class="cls-24" transform="translate(-156.434 -167.508)"/>
                <path id="Path_306" d="M198.707 176.815c-6.107 4.509-11.414 13.035-13.927 17.5" class="cls-24" transform="translate(-157.297 -171.122)"/>
                <path id="Path_307" d="M203.029 184.81c-6.841 3.257-13.63 10.635-16.909 14.53" class="cls-24" transform="translate(-158.073 -175.753)"/>
                <path id="Path_308" d="M206.548 194.294c-7.327 1.885-15.37 7.84-19.3 11.029" class="cls-24" transform="translate(-158.725 -181.246)"/>
                <path id="Path_309" d="M209.148 204.911c-7.557.441-16.569 4.759-21.006 7.133" class="cls-24" transform="translate(-159.244 -187.396)"/>
                <path id="Path_310" d="M210.732 215.963c-7.517-1.022-17.179 1.492-21.966 2.968" class="cls-24" transform="translate(-159.606 -193.66)"/>
                <path id="Path_311" d="M211.257 225.57c-7.2-2.457-17.175-1.84-22.141-1.311" class="cls-24" transform="translate(-159.808 -198.325)"/>
                <path id="Path_312" d="M210.7 232.062c-6.631-3.8-16.553-5.116-21.519-5.551" class="cls-24" transform="translate(-159.844 -199.908)"/>
                <path id="Path_313" d="M209.092 237.692c-5.819-5.017-15.327-8.219-20.123-9.6" class="cls-24" transform="translate(-159.723 -200.822)"/>
                <path id="Path_314" d="M206.485 242.906c-4.8-6.048-13.554-11.024-18.008-13.3" class="cls-24" transform="translate(-159.438 -201.698)"/>
                <path id="Path_315" d="M202.971 247.534c-3.6-6.861-11.285-13.433-15.241-16.529" class="cls-24" transform="translate(-159.005 -202.511)"/>
                <path id="Path_316" d="M198.674 251.4c-2.275-7.431-8.615-15.365-11.931-19.169" class="cls-24" transform="translate(-158.434 -203.223)"/>
                <path id="Path_317" d="M193.746 254.388c-.866-7.735-5.629-16.742-8.189-21.119" class="cls-24" transform="translate(-157.747 -203.822)"/>
                <path id="Path_318" d="M187.43 256.719c-.447-8.342-2.666-17.6-3.9-22.36" class="cls-24" transform="translate(-156.572 -204.453)"/>
                <path id="Path_319" d="M187.146 165.732c-3.783 6.624-5.258 16.564-5.792 21.707" class="cls-24" transform="translate(-155.312 -164.702)"/>
            </g>
            <path id="Path_320" d="M237.936 277.665l.523-7.563h-1.077l1.084-10.645h-.989l1.154-9.723h-1.019l.971-9.392h-1.258l1.826-9.746h-.94l.859-9.363h-1.2l1.115-9.765h-1.37l1.2-9.441h-4.235l.566-2.864-2.444-1.224.92-12.446h-2.637l-.061-3.253-.7-.146.778-1.17.005-.369h-1.553c-.049 0-.451-12.118-.529-13.316 0 .007-.641-.048-.614 0 .3.52-1.141 13.314-.452 13.314h-1.552v.369l.783 1.17-.695.146-.058 3.253h-2.794l.915 12.446-2.446 1.224.568 2.864h-4.74l1.2 9.441h-1.365l1.11 9.765h-1.2l.855 9.363h-.94l1.827 9.746h-1.254l.967 9.392h-1.02l1.158 9.723h-2.31s10.479 9.341 21.066 18.209" class="cls-25" transform="translate(-175.617 -117.98)"/>
            <path id="Path_321" d="M386.384 363.7c-.159.1-.319.2-.479.285a11.88 11.88 0 0 1-3.214 1.253c-.072.016-.145.035-.217.048-.052.109-.1.223-.154.329a14.152 14.152 0 0 0 1.205 1.327 10.915 10.915 0 0 0 6.522 3.277v-.009a10.928 10.928 0 0 0-3.522-6.384c-.047-.047-.095-.085-.141-.126zm.919-2.927l-.289.528-.209-.149-.281-.2a8.043 8.043 0 0 1-1.55-1.5c-.11-.138-.218-.281-.324-.427q-.547.432-1.031.9c0 .267-.013.53-.029.791-.007.112-.015.223-.024.335-.016.194-.04.383-.064.573s-.048.374-.079.557a12.728 12.728 0 0 1-.457 1.887c-.069.209-.144.412-.222.61a11.463 11.463 0 0 0 2.742-1.07c.162-.087.323-.182.484-.277s.318-.188.475-.29c.327-.212.652-.438.971-.685a10.927 10.927 0 0 0 4.189-5.972h-.008a8.527 8.527 0 0 0-3.381.606q-.013.3-.041.588a8.868 8.868 0 0 1-.871 3.2zm-2.523-2.506c.1.152.2.3.3.443s.212.288.321.423a7.428 7.428 0 0 0 1.434 1.384v-.007a8.069 8.069 0 0 0 .765-2.688c.025-.2.051-.4.065-.612.012-.192.013-.391.017-.589a13.627 13.627 0 0 0-.383-3.388 10.921 10.921 0 0 0-3.732-6.267l-.008.005a10.927 10.927 0 0 0-.465 7.276 13.187 13.187 0 0 0 1.686 4.017zm-1.852 3.661c.027-.177.043-.36.064-.542v-.018c.021-.185.045-.367.059-.557.007-.106.006-.216.012-.323.011-.234.026-.467.026-.706v-.085a10.886 10.886 0 0 0-2.156-6.884h-.009a10.931 10.931 0 0 0-2.156 6.965 12.359 12.359 0 0 0 1.2 5.486c.021.042.04.09.061.13a7.129 7.129 0 0 0 .905 1.354l.006-.006a6.977 6.977 0 0 0 .742-1.076c.055-.1.113-.186.165-.287.04-.077.075-.162.114-.242.053-.109.106-.218.155-.331.032-.074.067-.145.1-.221.048-.119.09-.246.135-.37a12.083 12.083 0 0 0 .577-2.289zm-14.414.9c-.1-.178-.2-.356-.291-.534a9.023 9.023 0 0 0-1.509 3.872l.008.005a8.742 8.742 0 0 0 3.578-1.071c-.132-.132-.26-.264-.384-.4a10.956 10.956 0 0 1-1.402-1.871zm5.391-1.307c.161.078.322.166.483.25q.272-.321.516-.649c-.116-.139-.229-.282-.34-.431a11.988 11.988 0 0 1-1.351-2.366q-.107-.244-.2-.5a13.66 13.66 0 0 0-2.7 1.988c-.186.175-.358.357-.531.538.22.016.444.044.671.077a12.189 12.189 0 0 1 3.452 1.094zm1.369 1.38c-.25-.162-.5-.31-.757-.453-.161-.09-.322-.174-.483-.258s-.33-.171-.5-.249a11.332 11.332 0 0 0-3.561-1.031c-.229-.024-.452-.034-.671-.038a6.936 6.936 0 0 0-.724.022c-.109.009-.222.01-.327.024v.009c.026.09.058.182.089.273.067.2.146.392.236.59.08.178.169.358.267.537a10.368 10.368 0 0 0 1.555 2.106q.189.2.391.4t.4.376a14.216 14.216 0 0 0 1.728 1.319 10.914 10.914 0 0 0 7.025 1.981v-.009a10.93 10.93 0 0 0-4.668-5.6zm-1.973-5.83q.087.257.183.505c.064.169.132.334.2.5a11.709 11.709 0 0 0 1.2 2.151c.112.157.226.31.344.455s.239.284.361.418a6.965 6.965 0 0 0 1.057.952l.005-.007a10.013 10.013 0 0 0 .766-5.606c-.014-.122-.028-.244-.045-.367-.061-.43-.137-.863-.242-1.3a10.923 10.923 0 0 0-3.719-6.275l-.008.005a10.929 10.929 0 0 0-.479 7.276c.106.441.234.874.376 1.293z" class="cls-15" transform="translate(-262.411 -222.093)"/>
            <g id="Group_25" transform="translate(150.707 35.44)">
                <path id="Path_322" d="M591.73 180.921c.335 1.524.818 4.251 1.281 7.467.54 3.748 1.039 8.154 1.039 8.154h-14.112s.34-4.885.934-8.892c.483-3.255.685-5.523 1.007-6.864z" class="cls-25" transform="translate(-536.625 -161.278)"/>
                <path id="Path_323" d="M489.977 195.075c3.943-.86 10.359-5.52 10.359-5.52l1.4-5.778z" class="cls-15" transform="translate(-484.517 -163.011)"/>
                <path id="Path_324" d="M523.132 183.891c.725 3.3 2.321 14.41 2.321 14.41H510.8s1.969-11.728 2.994-14.524z" class="cls-15" transform="translate(-496.58 -163.011)"/>
                <path id="Path_325" d="M477 217.6h66.7c-12.132 23.9-49.031 26.84-66.7 0" class="cls-17" transform="translate(-477 -182.601)"/>
                <path id="Path_326" d="M536.729 183.011s9.678 10.993 7.995 14.1c-.8 1.475-2.884 1.487-4.97 1.184a30.745 30.745 0 0 1-5.129-1.295l1.1-2.288 5.943.762-3.892-5.628z" class="cls-15" transform="translate(-510.378 -162.567)"/>
                <path id="Path_327" d="M505.866 150.033c-2.52 6.048-4.665 9.6 2.268 13.484a18.977 18.977 0 0 0 4.5 2.045 6.292 6.292 0 0 0 3.166-.029 17.513 17.513 0 0 0 4.536-2.015c6.933-3.883 4.788-7.436 2.268-13.484z" class="cls-3" transform="translate(-492.324 -143.465)"/>
                <path id="Path_328" d="M514.066 171.682a1.722 1.722 0 1 0 1.722-1.722 1.721 1.721 0 0 0-1.722 1.722" class="cls-5" transform="translate(-498.47 -155.008)"/>
                <path id="Path_329" d="M534.066 171.682a1.722 1.722 0 1 0 1.722-1.722 1.721 1.721 0 0 0-1.722 1.722" class="cls-5" transform="translate(-510.054 -155.008)"/>
                <path id="Path_330" d="M523.746 177.9a1.913 1.913 0 0 0 3.465.143z" class="cls-10" transform="translate(-504.077 -159.609)"/>
                <path id="Path_331" fill="none" stroke="#1a1818" stroke-width="0.947px" d="M526.879 166.443l-1.519 2.128 1.322.926" transform="translate(-505.012 -152.971)"/>
                <path id="Path_332" d="M535.745 159.65a4.009 4.009 0 0 0-2.593.263c-.058-.086.769-1 2.659-.742 1.941.269 2.438 1.37 2.358 1.436a4.006 4.006 0 0 0-2.424-.958" class="cls-10" transform="translate(-509.523 -148.732)"/>
                <path id="Path_333" d="M513.139 160.128a4 4 0 0 1 2.593.263c.058-.086-.769-1-2.659-.742-1.942.269-2.438 1.37-2.358 1.437a4 4 0 0 1 2.424-.958" class="cls-10" transform="translate(-496.524 -149.008)"/>
                <path id="Path_334" d="M536.961 163.417a.831.831 0 1 0 .814-.99.915.915 0 0 0-.814.99" class="cls-10" transform="translate(-511.731 -150.644)"/>
                <path id="Path_335" d="M515.676 163.417a.831.831 0 1 0 .814-.99.915.915 0 0 0-.814.99" class="cls-10" transform="translate(-499.402 -150.644)"/>
                <path id="Path_336" d="M518.2 157.778a10.225 10.225 0 0 0 6.238-10.373c-.3-4.918-5.591-8.573-12.618-8.573-7.341 0-11.753 3.273-12.1 9.647a9.237 9.237 0 0 0 5.562 8.8s-2.253-4.268-2.344-6.37 2.4-6.88 2.4-6.88l-.492 3.206 14.144-.883a28.27 28.27 0 0 1 1.523 4.743c.32 2.08-2.316 6.683-2.316 6.683" class="cls-10" transform="translate(-490.157 -136.977)"/>
                <path id="Path_337" d="M493.139 190.035s-2.16 1.318-4.717 2.83c-3.384 2-3.981 4.053-3.2 5.262 1.056 1.646 5.191-.209 10.252-4.589z" class="cls-15" transform="translate(-481.584 -166.636)"/>
                <path id="Path_338" d="M507.384 192.582c-.16.96-.814 1.836-1.5 1.828-.984-.012-2.037-1.622-1.808-3.856l1.265.081z" class="cls-10" transform="translate(-492.665 -166.936)"/>
                <path id="Path_339" d="M526.912 193.636s-3.362-1.243-9.664.047c1.788 1.769 7.79 1.721 9.664-.047" class="cls-17" transform="translate(-500.313 -168.41)"/>
                <path id="Path_340" d="M505.588 186.009a39.305 39.305 0 0 1 4.4-1.845c.653.274-.621 1.479-.621 1.479z" class="cls-3" transform="translate(-493.559 -163.235)"/>
                <path id="Path_341" d="M509.681 185.473l-15.33-2.927-.058.483 15.353 2.735z" class="cls-13" transform="translate(-487.017 -162.298)"/>
                <path id="Path_342" fill="none" stroke="#fff" stroke-linecap="round" stroke-linejoin="round" stroke-width="0.391px" d="M525.912 188.35c1.158.139 1.358 3.488-.393 3.276-1.473-.178-.933-2.9.225-2.763s.811 2.126.075 2.037 0-2.669 1.054-2.542.868 6.083-1.061 7.026" transform="translate(-504.585 -165.66)"/>
                <path id="Path_343" d="M493.243 185.678l-.081.676 15.256 1.344.016-.376z" class="cls-13" transform="translate(-486.362 -164.112)"/>
                <path id="Path_344" d="M504.185 188.527c-.279-.155-.3-.649.518-1a5 5 0 0 1 .974-.234c.817-.159 1.842-.419 2.518-.481.817-.074.762.28.7.366a6.052 6.052 0 0 1-1.769.885s.779-.269 1.537-.49c.534-.156 1.03-.257 1.155-.068.167.255-.148.482-.488.707a5.027 5.027 0 0 1-.706.39 7.76 7.76 0 0 1 .95-.268c.284-.059 1.036.219-.67 1.316-.979.63-2.2 1.305-2.86 1.058s-.106-1.02-.106-1.02-.813.249-1.152-.185.3-.848.3-.848a1.235 1.235 0 0 1-.9-.124" class="cls-3" transform="translate(-492.645 -164.76)"/>
                <path id="Path_345" d="M594.463 212.982h-7.391c0 2.356.856 6.426 2.945 7.123h2.839c2.089-.7 2.945-4.767 2.945-7.123h-7.39" class="cls-4" transform="translate(-540.757 -179.927)"/>
                <path id="Path_346" d="M587.072 212.426a23.316 23.316 0 0 1 8.729 0c-.925 1.36-7.111 1.709-8.729 0" class="cls-17" transform="translate(-540.757 -179.371)"/>
                <path id="Path_347" d="M596.769 230.819h-3.425l.294-.908h2.829z" class="cls-13" transform="translate(-544.39 -189.733)"/>
                <path id="Path_348" d="M602.427 218.9a1.561 1.561 0 0 1 .8.283l.734 1.905c-2.163 1.545-4.935 1.351-4.935 1.041s1.964-.613 1.964-.613-2.041.126-2.051-.289c-.008-.386 2.105-.644 2.105-.644s-1.928.054-1.993-.367c-.043-.277.642-.382 1.315-.44.9-.078 1.871-.052 1.871-.052z" class="cls-3" transform="translate(-547.63 -183.354)"/>
                <path id="Path_349" d="M586.2 220.39a3.531 3.531 0 0 0-.573.3l-.723 1.944c2.163 1.545 5.058 1.395 5.058 1.086S588 223.1 588 223.1s2.042.126 2.051-.289c.008-.386-2.105-.645-2.105-.645s1.928.055 1.993-.366c.044-.277-.643-.382-1.315-.44-.9-.079-2.154-.08-2.154-.08z" class="cls-3" transform="translate(-539.503 -184.218)"/>
                <path id="Path_350" d="M608.022 181.157l-.226.129c-.1 1.729-.678 4.181 1.242 7.2.948 1.539 2.942 4.839 2.942 5.326 0 .331-1.018 1.209-2 1.979-.475.373-.938.718-1.275.965-.309.226-.515.372-.515.372l.8 2.1s5.914-2.756 6.586-4.907c.92-2.947-7.555-13.168-7.555-13.168" class="cls-25" transform="translate(-552.669 -161.493)"/>
                <path id="Path_351" d="M572.027 195.557a11.082 11.082 0 0 1-2.055-1.9c-.181-.5.44-1.453 1.094-2.656.5-.912 1.128-1.909 1.744-2.827.026-.186.737-.533.764-.716a25.081 25.081 0 0 0 .3-6.621l-.211-.1s-7.808 9.467-7.5 13.683c.165 2.248 7.86 5.3 7.86 5.3l.779-2.013s-.7-.524-1.567-1.2c-.385-.3-.8-.629-1.209-.957" class="cls-25" transform="translate(-528.641 -161.251)"/>
                <path id="Path_352" d="M589.637 144.063c2.752 6.6 5.093 10.48-2.476 14.718a21.842 21.842 0 0 1-4.78 2.228 6.821 6.821 0 0 1-1.551.281 7.035 7.035 0 0 1-2.042-.308 19.106 19.106 0 0 1-4.953-2.2c-7.569-4.238-5.227-8.116-2.476-14.718z" class="cls-3" transform="translate(-530.132 -140.007)"/>
                <path id="Path_353" d="M582.777 168.227a1.931 1.931 0 1 1-1.931-1.931 1.932 1.932 0 0 1 1.931 1.931" class="cls-5" transform="translate(-536.032 -152.885)"/>
                <path id="Path_354" d="M609.3 167.85a1.932 1.932 0 1 1-1.932-1.931 1.932 1.932 0 0 1 1.932 1.931" class="cls-5" transform="translate(-551.396 -152.667)"/>
                <path id="Path_355" d="M579.236 134.476c3.758-.3 7.89.674 10.076 3.98 1.669 2.523 2.917 6.215 2.537 8.728-3.249-1.264-3.891-7.645-3.891-7.645l-.2 2.5s-8.99.423-14.417-3.4c0 0-2.608 8.628-5.315 9.169.559-11.6 7.456-13.028 11.214-13.329" class="cls-10" transform="translate(-529.723 -134.424)"/>
                <path id="Path_356" d="M592.881 159.2l-1.013 4.181 2.751.383.143-1.245" class="cls-28" transform="translate(-543.535 -148.776)"/>
                <path id="Path_357" d="M590.737 173.993a4.135 4.135 0 0 0 5.262-.965" class="cls-28" transform="translate(-542.88 -156.785)"/>
                <path id="Path_358" d="M580.435 153.083a4.239 4.239 0 0 1 2.744.279c.061-.091-.814-1.062-2.815-.785-2.055.285-2.579 1.449-2.495 1.519a4.237 4.237 0 0 1 2.565-1.013" class="cls-10" transform="translate(-535.422 -144.91)"/>
                <path id="Path_359" d="M603.755 154.677a4.237 4.237 0 0 0-2.743.28c-.062-.091.813-1.062 2.814-.785 2.055.285 2.58 1.449 2.5 1.519a4.241 4.241 0 0 0-2.565-1.014" class="cls-10" transform="translate(-548.83 -145.834)"/>
                <path id="Path_360" d="M584.1 158.662a.88.88 0 1 1-.862-1.049.967.967 0 0 1 .862 1.049" class="cls-10" transform="translate(-538.033 -147.856)"/>
                <path id="Path_361" d="M606.018 158.662a.88.88 0 1 1-.862-1.049.967.967 0 0 1 .862 1.049" class="cls-10" transform="translate(-550.731 -147.856)"/>
                <path id="Path_362" d="M526.912 194.378c-1.145 2.735-3.6 7.939-3.6 7.939h-2.254a76.69 76.69 0 0 1-3.81-7.893c1.163 1.385 7.19 2.033 9.664-.047" class="cls-11" transform="translate(-500.313 -169.151)"/>
                <path id="Path_363" d="M526.152 205.869c-.4.2.455 2.025.544 2.193l-.4.8h-2.254s-.575-1.941-1.732-1.6a4.871 4.871 0 0 0 1.893 2.682 5.338 5.338 0 0 0 1.495.277 11.325 11.325 0 0 0 1.792-.04l1-2s-1.92-2.525-2.341-2.314" class="cls-3" transform="translate(-503.246 -175.8)"/>
                <path id="Path_364" d="M497.507 234.545l18.209 2.227-3.537-2.882-6.418-1.048z" class="cls-13" transform="translate(-488.878 -191.431)"/>
                <path id="Path_365" d="M510.737 221.54l-4.191 6.681c-2.751-1.7-9.039-1.048-9.039-1.048l5.24-6.812s5.108-1.048 7.99 1.179z" class="cls-11" transform="translate(-488.878 -184.059)"/>
                <path id="Path_366" d="M518.989 229.561c3.275-1.048 9.17 1.179 9.17 1.179l3.141-7.54s-4.582-1.5-8.12-.321z" class="cls-12" transform="translate(-501.321 -185.399)"/>
                <g id="Group_24" transform="translate(32.89 40.969)">
                    <path id="Path_367" d="M571.128 236.54c0 2.623-3.574 4.748-7.981 4.748s-7.981-2.126-7.981-4.748 3.573-4.748 7.981-4.748 7.981 2.126 7.981 4.748" class="cls-4" transform="translate(-555.167 -231.792)"/>
                    <path id="Line_3" d="M12.413 0L0 4.26" class="cls-29" transform="translate(2.313 .439)"/>
                    <path id="Path_368" d="M573.254 234.168a1.6 1.6 0 0 0-.406-.465 4.242 4.242 0 0 0-.746-.36 1.547 1.547 0 0 0-.489-.169c-.3-.064-.118-.243-.525-.121s-.341.226-.554.314a2.027 2.027 0 0 0-.561.393c-.123.12-.2-.008-.341.165a.9.9 0 0 1-.33.311c-.177.1-.364 0-.318.275s.734.862 1.155 1.109.394-.026.522.363.31.451.648.589.308.107.457.32a.751.751 0 0 0 .631.34c.315.028.385.234.648-.059a1.685 1.685 0 0 0 .482-.866c.1-.41.236-.506.185-.767s-.326-.518-.4-.707.055-.524-.058-.665z" class="cls-11" transform="translate(-563.165 -232.499)"/>
                    <path id="Path_369" d="M561.95 237.792c.118.049.189.026.316.219s.161.174.116.569-.174.358.051.649a2.429 2.429 0 0 0 .787.638c.28.151.258.23.517.306a1.3 1.3 0 0 0 .6.019 1.709 1.709 0 0 0 1.01-.228c.4-.263.7-.43.768-.749s.128-.245.165-.374.136-.032.04-.285a2.411 2.411 0 0 0-.444-.651 3.111 3.111 0 0 0-.794-.808c-.537-.382-.512-.614-.948-.811a2.154 2.154 0 0 0-.906-.179c-.233-.025-.17-.19-.55-.047s-.386-.028-.763.2-.487.268-.337.578.145.862.372.954z" class="cls-11" transform="translate(-558.843 -234.23)"/>
                    <g id="Group_23" transform="translate(4.2 1.895)">
                        <path id="Line_4" d="M5.86 0L0 2.273" class="cls-29" transform="translate(8.969)"/>
                        <path id="Path_370" d="M565.75 247.065a.942.942 0 1 0 1.219.538.941.941 0 0 0-1.219-.538" class="cls-9" transform="translate(-565.148 -242.497)"/>
                        <path id="Path_371" d="M569.683 245.54a.942.942 0 1 0 1.218.537.941.941 0 0 0-1.218-.537" class="cls-9" transform="translate(-567.426 -241.614)"/>
                        <path id="Path_372" d="M573.617 244.016a.941.941 0 1 0 1.219.537.94.94 0 0 0-1.219-.537" class="cls-9" transform="translate(-569.705 -240.73)"/>
                        <path id="Path_373" d="M577.551 242.488a.941.941 0 1 0 1.218.537.942.942 0 0 0-1.218-.537" class="cls-9" transform="translate(-571.983 -239.846)"/>
                        <path id="Path_374" d="M581.436 240.98a.942.942 0 1 0 1.219.538.943.943 0 0 0-1.219-.538" class="cls-9" transform="translate(-574.234 -238.972)"/>
                        <path id="Path_375" d="M585.371 239.455a.942.942 0 1 0 1.219.538.944.944 0 0 0-1.219-.538" class="cls-9" transform="translate(-576.513 -238.089)"/>
                    </g>
                </g>
            </g>
        </g>
    </g>
</svg>
